<?xml version="1.0" encoding="UTF-8"?>
<svg version="1.1" xmlns="http://www.w3.org/2000/svg" width="500" height="500">
<path d="M0 0 C6.05563239 0.09659291 6.05563239 0.09659291 8.41845703 2.35693359 C9.76010347 4.24621236 10.92542981 6.16833619 12.0625 8.1875 C12.49022705 8.91509521 12.9179541 9.64269043 13.35864258 10.39233398 C33.10458011 44.69263093 40.50108392 88.90945872 36 128 C36.76699219 127.81824219 37.53398437 127.63648438 38.32421875 127.44921875 C45.74674778 125.76815817 53.15562998 124.45098143 60.6875 123.375 C61.54110107 123.25213623 62.39470215 123.12927246 63.27416992 123.00268555 C74.4306969 121.45284154 85.43937592 120.8134649 96.69702148 120.81469727 C98.9303688 120.81250699 101.16322359 120.79426878 103.39648438 120.77539062 C111.7668327 120.7409457 119.80070708 121.16485788 128 123 C128.90927246 123.20093262 129.81854492 123.40186523 130.75537109 123.60888672 C137.9326451 125.37986917 144.40923311 128.25772369 151.0625 131.4375 C165.43026139 138.78816298 165.43026139 138.78816298 181 142 C182.68236471 141.37400383 184.3523962 140.71247732 186 140 C187.67688081 140.27741603 189.3468125 140.60520895 191 141 C194.95328993 168.13880113 178.18193428 201.8202285 162.40869141 223.15209961 C161.94382324 223.76190674 161.47895508 224.37171387 161 225 C160.52820313 225.80050781 160.05640625 226.60101563 159.5703125 227.42578125 C153.12133338 237.99761518 143.72082545 247.27917455 135 256 C134.05688145 257.120294 133.11984093 258.24572074 132.1875 259.375 C128.85263259 263.31620693 125.15352537 266.92227512 121 270 C120.34 270 119.68 270 119 270 C119 270.66 119 271.32 119 272 C117.44549377 273.04424846 115.8549939 274.03514818 114.25 275 C109.41922546 278.28601073 107.75611023 280.79961382 105.97265625 286.2578125 C102.81584921 295.15772632 96.97730965 303.64824225 90 310 C89.34 310 88.68 310 88 310 C87.67 310.99 87.34 311.98 87 313 C73.82747921 326.93039185 56.8294908 334.94774749 39 341 C37.20949219 341.60908203 37.20949219 341.60908203 35.3828125 342.23046875 C14.60435105 348.52766111 -10.73484078 348.34456628 -30.296875 338.30859375 C-32.92340389 336.71913675 -32.92340389 336.71913675 -35.75 337.4375 C-38.54535226 338.78141935 -41.05823102 340.24261025 -43.6875 341.875 C-69.29231912 357.62886326 -111.5104933 361.09151087 -140.36889648 355.54467773 C-142.39970164 355.03490275 -144.38199361 354.45353713 -146.375 353.8125 C-147.43654297 353.48475586 -147.43654297 353.48475586 -148.51953125 353.15039062 C-175.22760856 344.69997401 -197.39500102 330.6941857 -211.40625 305.82421875 C-213.10015969 302.82251113 -214.90222856 299.91252344 -216.76171875 297.01171875 C-217.78623314 295.34728686 -218.76298292 293.65355955 -219.7265625 291.953125 C-221.4847688 288.85458943 -223.32973402 285.81779117 -225.19921875 282.78515625 C-225.76833984 281.85123047 -226.33746094 280.91730469 -226.92382812 279.95507812 C-228.10106571 278.02430419 -229.28862489 276.09978642 -230.48632812 274.18164062 C-234.65746695 267.2804748 -236.99984021 262.48023638 -235.1796875 254.32421875 C-234.74914062 253.12410156 -234.31859375 251.92398438 -233.875 250.6875 C-233.64272705 250.03507324 -233.4104541 249.38264648 -233.17114258 248.71044922 C-231.09043072 242.98127914 -228.62821773 237.49276021 -226 232 C-225.40513393 230.67947207 -224.81287842 229.35776633 -224.22265625 228.03515625 C-211.70669833 200.25806942 -192.98438209 180.2172078 -164.24609375 169.109375 C-153.09539352 165 -153.09539352 165 -149 165 C-148.75765625 163.87464844 -148.5153125 162.74929687 -148.265625 161.58984375 C-142.40282402 134.61149836 -134.62442548 104.4900089 -115.37890625 83.56640625 C-113.84299285 81.82164343 -112.55901987 79.98214138 -111.25 78.0625 C-110.5075 77.051875 -109.765 76.04125 -109 75 C-108.34 75 -107.68 75 -107 75 C-106.77957031 74.46246094 -106.55914062 73.92492187 -106.33203125 73.37109375 C-104.54948697 70.19806038 -102.1640849 67.69695486 -99.6875 65.0625 C-98.9769043 64.29389648 -98.9769043 64.29389648 -98.25195312 63.50976562 C-95.2389425 60.26593613 -92.13826618 57.12327446 -89 54 C-88.20722656 53.17242187 -87.41445312 52.34484375 -86.59765625 51.4921875 C-68.52236298 32.83202341 -49.34408079 23.25502677 -24.49609375 16.08789062 C-11.85151705 12.40641128 -11.85151705 12.40641128 -2.4375 3.6875 C-1.96183594 2.99011719 -1.48617187 2.29273437 -0.99609375 1.57421875 C-0.50302734 0.79498047 -0.50302734 0.79498047 0 0 Z " fill="#9B5726" transform="translate(272,72)"/>
<path d="M0 0 C6.05563239 0.09659291 6.05563239 0.09659291 8.41845703 2.35693359 C9.76010347 4.24621236 10.92542981 6.16833619 12.0625 8.1875 C12.49022705 8.91509521 12.9179541 9.64269043 13.35864258 10.39233398 C33.10458011 44.69263093 40.50108392 88.90945872 36 128 C36.76699219 127.81824219 37.53398437 127.63648438 38.32421875 127.44921875 C45.74674778 125.76815817 53.15562998 124.45098143 60.6875 123.375 C61.54110107 123.25213623 62.39470215 123.12927246 63.27416992 123.00268555 C74.4306969 121.45284154 85.43937592 120.8134649 96.69702148 120.81469727 C98.9303688 120.81250699 101.16322359 120.79426878 103.39648438 120.77539062 C111.7668327 120.7409457 119.80070708 121.16485788 128 123 C128.90927246 123.20093262 129.81854492 123.40186523 130.75537109 123.60888672 C137.9326451 125.37986917 144.40923311 128.25772369 151.0625 131.4375 C165.43026139 138.78816298 165.43026139 138.78816298 181 142 C182.68236471 141.37400383 184.3523962 140.71247732 186 140 C187.67688081 140.27741603 189.3468125 140.60520895 191 141 C194.95328993 168.13880113 178.18193428 201.8202285 162.40869141 223.15209961 C161.94382324 223.76190674 161.47895508 224.37171387 161 225 C160.52820313 225.80050781 160.05640625 226.60101563 159.5703125 227.42578125 C153.12133338 237.99761518 143.72082545 247.27917455 135 256 C134.05688145 257.120294 133.11984093 258.24572074 132.1875 259.375 C128.85263259 263.31620693 125.15352537 266.92227512 121 270 C120.34 270 119.68 270 119 270 C119 270.66 119 271.32 119 272 C117.44549377 273.04424846 115.8549939 274.03514818 114.25 275 C109.41922546 278.28601073 107.75611023 280.79961382 105.97265625 286.2578125 C102.81584921 295.15772632 96.97730965 303.64824225 90 310 C89.34 310 88.68 310 88 310 C87.67 310.99 87.34 311.98 87 313 C73.82747921 326.93039185 56.8294908 334.94774749 39 341 C37.20949219 341.60908203 37.20949219 341.60908203 35.3828125 342.23046875 C14.60435105 348.52766111 -10.73484078 348.34456628 -30.296875 338.30859375 C-32.92340389 336.71913675 -32.92340389 336.71913675 -35.75 337.4375 C-38.54535226 338.78141935 -41.05823102 340.24261025 -43.6875 341.875 C-69.29231912 357.62886326 -111.5104933 361.09151087 -140.36889648 355.54467773 C-142.39970164 355.03490275 -144.38199361 354.45353713 -146.375 353.8125 C-147.43654297 353.48475586 -147.43654297 353.48475586 -148.51953125 353.15039062 C-175.22760856 344.69997401 -197.39500102 330.6941857 -211.40625 305.82421875 C-213.10015969 302.82251113 -214.90222856 299.91252344 -216.76171875 297.01171875 C-217.78623314 295.34728686 -218.76298292 293.65355955 -219.7265625 291.953125 C-221.4847688 288.85458943 -223.32973402 285.81779117 -225.19921875 282.78515625 C-225.76833984 281.85123047 -226.33746094 280.91730469 -226.92382812 279.95507812 C-228.10106571 278.02430419 -229.28862489 276.09978642 -230.48632812 274.18164062 C-234.65746695 267.2804748 -236.99984021 262.48023638 -235.1796875 254.32421875 C-234.74914062 253.12410156 -234.31859375 251.92398438 -233.875 250.6875 C-233.64272705 250.03507324 -233.4104541 249.38264648 -233.17114258 248.71044922 C-231.09043072 242.98127914 -228.62821773 237.49276021 -226 232 C-225.40513393 230.67947207 -224.81287842 229.35776633 -224.22265625 228.03515625 C-211.70669833 200.25806942 -192.98438209 180.2172078 -164.24609375 169.109375 C-153.09539352 165 -153.09539352 165 -149 165 C-148.75765625 163.87464844 -148.5153125 162.74929687 -148.265625 161.58984375 C-142.40282402 134.61149836 -134.62442548 104.4900089 -115.37890625 83.56640625 C-113.84299285 81.82164343 -112.55901987 79.98214138 -111.25 78.0625 C-110.5075 77.051875 -109.765 76.04125 -109 75 C-108.34 75 -107.68 75 -107 75 C-106.77957031 74.46246094 -106.55914062 73.92492187 -106.33203125 73.37109375 C-104.54948697 70.19806038 -102.1640849 67.69695486 -99.6875 65.0625 C-98.9769043 64.29389648 -98.9769043 64.29389648 -98.25195312 63.50976562 C-95.2389425 60.26593613 -92.13826618 57.12327446 -89 54 C-88.20722656 53.17242187 -87.41445312 52.34484375 -86.59765625 51.4921875 C-68.52236298 32.83202341 -49.34408079 23.25502677 -24.49609375 16.08789062 C-11.85151705 12.40641128 -11.85151705 12.40641128 -2.4375 3.6875 C-1.96183594 2.99011719 -1.48617187 2.29273437 -0.99609375 1.57421875 C-0.50302734 0.79498047 -0.50302734 0.79498047 0 0 Z M-49.140625 168.75 C-52.46175459 170.20185993 -53.61696369 170.14016888 -57 169 C-58.84934738 168.26841993 -60.68210405 167.49406647 -62.5 166.6875 C-88.32319572 155.68873145 -115.21190439 157.07913287 -142 164 C-142.91136719 164.22993652 -143.82273437 164.45987305 -144.76171875 164.69677734 C-156.63109711 167.75725757 -167.29629573 172.04816444 -178 178 C-178.94359375 178.515625 -179.8871875 179.03125 -180.859375 179.5625 C-187.06832166 183.11046952 -192.58828134 187.3377303 -198 192 C-198.72832031 192.59683594 -199.45664063 193.19367188 -200.20703125 193.80859375 C-214.19766939 206.33714718 -221.83470299 226.06818811 -229 243 C-229.30083496 243.69867188 -229.60166992 244.39734375 -229.91162109 245.1171875 C-232.57168772 251.33511306 -234.45711349 256.15094623 -234 263 C-232.71001929 266.16982737 -232.71001929 266.16982737 -230.7734375 269.21875 C-230.4340213 269.79050461 -230.0946051 270.36225922 -229.74490356 270.95133972 C-228.63636128 272.81022463 -227.50649241 274.65501097 -226.375 276.5 C-225.59713061 277.79071411 -224.82045011 279.08214543 -224.04492188 280.37426758 C-222.46877651 282.99495501 -220.88374329 285.60995578 -219.29199219 288.22119141 C-217.18468747 291.68407291 -215.12248577 295.17208471 -213.0703125 298.66796875 C-211.88091532 300.67489833 -210.69085126 302.68143289 -209.5 304.6875 C-208.9745459 305.58726562 -208.4490918 306.48703125 -207.90771484 307.4140625 C-194.0231659 330.47550502 -170.67081927 344.42583023 -145.16015625 351.3828125 C-113.67394665 359.07293405 -74.00304029 354.32248903 -45 340 C-43.437612 339.03269453 -41.89051329 338.03920911 -40.375 337 C-37 335 -37 335 -33.75 334.875 C-30.48605238 335.85418429 -27.55532798 337.0204999 -24.4375 338.375 C0.48668224 349.05679239 26.69456687 343.47152971 51 334 C61.15599259 329.87800207 69.69953358 324.0386556 78 317 C78.55075195 316.53964355 79.10150391 316.07928711 79.66894531 315.60498047 C97.68740048 300.38393491 108.41492341 281.29746372 112.51953125 258.05859375 C113.34961548 247.94282149 108.23158973 238.88980247 104 230 C103.65308105 229.26072266 103.30616211 228.52144531 102.94873047 227.75976562 C96.38599785 213.85775771 88.82391299 201.98973895 78 191 C77.21882813 190.19433594 76.43765625 189.38867188 75.6328125 188.55859375 C55.30967303 168.88552103 20.51601835 157.3601019 -7.29296875 157.7890625 C-21.83903971 158.27805679 -36.36320959 161.63024614 -49.140625 168.75 Z " fill="#68A33F" transform="translate(272,72)"/>
<path d="M0 0 C12.66162021 10.55489685 22.6169252 21.26155962 30.32421875 35.9375 C30.8351709 36.90381348 30.8351709 36.90381348 31.35644531 37.88964844 C33.78810651 42.52192871 36.10028846 47.20212195 38.32421875 51.9375 C38.78586426 52.91517334 38.78586426 52.91517334 39.25683594 53.91259766 C45.4643435 67.31745858 45.7882048 77.8667479 41.06494141 91.94482422 C31.58183618 117.45606512 11.48315815 138.94397914 -13.171875 150.5 C-37.85431676 160.62612995 -64.85866892 167.15665421 -90.68652344 157.15917969 C-94.43145089 155.57832148 -98.07287883 153.81727518 -101.67578125 151.9375 C-101.67578125 151.2775 -101.67578125 150.6175 -101.67578125 149.9375 C-99.98828125 148.52734375 -99.98828125 148.52734375 -97.67578125 146.875 C-78.3754077 132.15131409 -65.63216332 106.57491451 -61.67578125 82.9375 C-59.58852799 60.73734501 -66.14342069 40.45887864 -79.94921875 23 C-91.38433472 9.77678428 -105.39760628 -1.59625018 -120.67578125 -10.0625 C-93.46674224 -40.63943309 -27.11548067 -20.4430849 0 0 Z " fill="#854227" transform="translate(339.67578125,254.0625)"/>
<path d="M0 0 C6.05563239 0.09659291 6.05563239 0.09659291 8.41845703 2.35693359 C9.76010347 4.24621236 10.92542981 6.16833619 12.0625 8.1875 C12.49022705 8.91509521 12.9179541 9.64269043 13.35864258 10.39233398 C33.10458011 44.69263093 40.50108392 88.90945872 36 128 C36.76699219 127.81824219 37.53398437 127.63648438 38.32421875 127.44921875 C45.74674778 125.76815817 53.15562998 124.45098143 60.6875 123.375 C61.54110107 123.25213623 62.39470215 123.12927246 63.27416992 123.00268555 C74.4306969 121.45284154 85.43937592 120.8134649 96.69702148 120.81469727 C98.9303688 120.81250699 101.16322359 120.79426878 103.39648438 120.77539062 C111.7668327 120.7409457 119.80070708 121.16485788 128 123 C128.90927246 123.20093262 129.81854492 123.40186523 130.75537109 123.60888672 C137.9326451 125.37986917 144.40923311 128.25772369 151.0625 131.4375 C165.43026139 138.78816298 165.43026139 138.78816298 181 142 C182.68236471 141.37400383 184.3523962 140.71247732 186 140 C187.67688081 140.27741603 189.3468125 140.60520895 191 141 C194.95328993 168.13880113 178.18193428 201.8202285 162.40869141 223.15209961 C161.94382324 223.76190674 161.47895508 224.37171387 161 225 C160.52820313 225.80050781 160.05640625 226.60101563 159.5703125 227.42578125 C153.12133338 237.99761518 143.72082545 247.27917455 135 256 C134.05688145 257.120294 133.11984093 258.24572074 132.1875 259.375 C128.85263259 263.31620693 125.15352537 266.92227512 121 270 C120.34 270 119.68 270 119 270 C119 270.66 119 271.32 119 272 C117.44549377 273.04424846 115.8549939 274.03514818 114.25 275 C109.41922546 278.28601073 107.75611023 280.79961382 105.97265625 286.2578125 C102.81584921 295.15772632 96.97730965 303.64824225 90 310 C89.34 310 88.68 310 88 310 C87.67 310.99 87.34 311.98 87 313 C73.82747921 326.93039185 56.8294908 334.94774749 39 341 C37.20949219 341.60908203 37.20949219 341.60908203 35.3828125 342.23046875 C14.60435105 348.52766111 -10.73484078 348.34456628 -30.296875 338.30859375 C-32.92340389 336.71913675 -32.92340389 336.71913675 -35.75 337.4375 C-38.54535226 338.78141935 -41.05823102 340.24261025 -43.6875 341.875 C-69.29231912 357.62886326 -111.5104933 361.09151087 -140.36889648 355.54467773 C-142.39970164 355.03490275 -144.38199361 354.45353713 -146.375 353.8125 C-147.43654297 353.48475586 -147.43654297 353.48475586 -148.51953125 353.15039062 C-175.22760856 344.69997401 -197.39500102 330.6941857 -211.40625 305.82421875 C-213.10015969 302.82251113 -214.90222856 299.91252344 -216.76171875 297.01171875 C-217.78623314 295.34728686 -218.76298292 293.65355955 -219.7265625 291.953125 C-221.4847688 288.85458943 -223.32973402 285.81779117 -225.19921875 282.78515625 C-225.76833984 281.85123047 -226.33746094 280.91730469 -226.92382812 279.95507812 C-228.10106571 278.02430419 -229.28862489 276.09978642 -230.48632812 274.18164062 C-234.65746695 267.2804748 -236.99984021 262.48023638 -235.1796875 254.32421875 C-234.74914062 253.12410156 -234.31859375 251.92398438 -233.875 250.6875 C-233.64272705 250.03507324 -233.4104541 249.38264648 -233.17114258 248.71044922 C-231.09043072 242.98127914 -228.62821773 237.49276021 -226 232 C-225.40513393 230.67947207 -224.81287842 229.35776633 -224.22265625 228.03515625 C-211.70669833 200.25806942 -192.98438209 180.2172078 -164.24609375 169.109375 C-153.09539352 165 -153.09539352 165 -149 165 C-148.75765625 163.87464844 -148.5153125 162.74929687 -148.265625 161.58984375 C-142.40282402 134.61149836 -134.62442548 104.4900089 -115.37890625 83.56640625 C-113.84299285 81.82164343 -112.55901987 79.98214138 -111.25 78.0625 C-110.5075 77.051875 -109.765 76.04125 -109 75 C-108.34 75 -107.68 75 -107 75 C-106.77957031 74.46246094 -106.55914062 73.92492187 -106.33203125 73.37109375 C-104.54948697 70.19806038 -102.1640849 67.69695486 -99.6875 65.0625 C-98.9769043 64.29389648 -98.9769043 64.29389648 -98.25195312 63.50976562 C-95.2389425 60.26593613 -92.13826618 57.12327446 -89 54 C-88.20722656 53.17242187 -87.41445312 52.34484375 -86.59765625 51.4921875 C-68.52236298 32.83202341 -49.34408079 23.25502677 -24.49609375 16.08789062 C-11.85151705 12.40641128 -11.85151705 12.40641128 -2.4375 3.6875 C-1.96183594 2.99011719 -1.48617187 2.29273437 -0.99609375 1.57421875 C-0.50302734 0.79498047 -0.50302734 0.79498047 0 0 Z M0 2 C-0.51304687 3.06992188 -1.02609375 4.13984375 -1.5546875 5.2421875 C-3.89535065 9.31121435 -6.92915057 11.19618011 -11.125 13.125 C-11.82077148 13.45918945 -12.51654297 13.79337891 -13.23339844 14.13769531 C-21.18348593 17.79636163 -29.5451657 19.86263435 -38 22 C-54.65105672 26.31322554 -67.48937284 36.63442581 -80 48 C-81.09692365 48.97608434 -82.19456947 49.95135776 -83.29296875 50.92578125 C-88.24258943 55.34979863 -92.98649136 59.84140071 -97.25 64.9453125 C-98.51965258 66.43602067 -99.83947963 67.88445175 -101.1875 69.3046875 C-106.51766778 74.92528109 -111.21194347 80.79132941 -115.75 87.0625 C-116.54591553 88.15957275 -116.54591553 88.15957275 -117.35791016 89.27880859 C-134.10643819 112.77276315 -141.69359086 137.97757393 -147 166 C-147.76111084 166.17305664 -148.52222168 166.34611328 -149.30639648 166.52441406 C-155.86356994 168.07860085 -161.94452057 169.93098513 -168.0625 172.75 C-168.83271484 173.09998047 -169.60292969 173.44996094 -170.39648438 173.81054688 C-180.5979701 178.54725687 -189.47988908 184.67715957 -198 192 C-198.72703125 192.59554687 -199.4540625 193.19109375 -200.203125 193.8046875 C-214.19506397 206.33703572 -221.83319673 226.06462877 -229 243 C-229.30083496 243.69867188 -229.60166992 244.39734375 -229.91162109 245.1171875 C-232.57168772 251.33511306 -234.45711349 256.15094623 -234 263 C-232.71001929 266.16982737 -232.71001929 266.16982737 -230.7734375 269.21875 C-230.4340213 269.79050461 -230.0946051 270.36225922 -229.74490356 270.95133972 C-228.63636128 272.81022463 -227.50649241 274.65501097 -226.375 276.5 C-225.59713061 277.79071411 -224.82045011 279.08214543 -224.04492188 280.37426758 C-222.46877651 282.99495501 -220.88374329 285.60995578 -219.29199219 288.22119141 C-217.18468747 291.68407291 -215.12248577 295.17208471 -213.0703125 298.66796875 C-211.88091532 300.67489833 -210.69085126 302.68143289 -209.5 304.6875 C-208.71181885 306.03714844 -208.71181885 306.03714844 -207.90771484 307.4140625 C-194.0231659 330.47550502 -170.67081927 344.42583023 -145.16015625 351.3828125 C-113.67394665 359.07293405 -74.00304029 354.32248903 -45 340 C-43.437612 339.03269453 -41.89051329 338.03920911 -40.375 337 C-37 335 -37 335 -33.75 334.875 C-30.48605238 335.85418429 -27.55532798 337.0204999 -24.4375 338.375 C0.48668224 349.05679239 26.69456687 343.47152971 51 334 C61.15599259 329.87800207 69.69953358 324.0386556 78 317 C78.55075195 316.53964355 79.10150391 316.07928711 79.66894531 315.60498047 C97.68740048 300.38393491 108.41492341 281.29746372 112.51953125 258.05859375 C113.34961548 247.94282149 108.23158973 238.88980247 104 230 C103.65308105 229.26072266 103.30616211 228.52144531 102.94873047 227.75976562 C96.38599785 213.85775771 88.82391299 201.98973895 78 191 C77.21882813 190.19433594 76.43765625 189.38867188 75.6328125 188.55859375 C58.47393992 171.948574 33.58460883 164.57153346 11 159 C13.98055808 153.35828624 17.13786226 148.16837391 21.125 143.1875 C21.98188103 142.09774289 22.83865456 141.00790124 23.6953125 139.91796875 C24.45585937 138.95503906 25.21640625 137.99210938 26 137 C26.82564453 135.84177734 26.82564453 135.84177734 27.66796875 134.66015625 C29.30093244 132.62493757 30.46005711 132.35033695 33 132 C33.75067537 126.55960509 34.20178559 121.23110076 34.30859375 115.7421875 C34.32394669 114.96925354 34.33929962 114.19631958 34.3551178 113.39996338 C34.91076967 78.91125641 29.32761577 44.3755192 12 14 C11.37867188 12.88496094 10.75734375 11.76992187 10.1171875 10.62109375 C7.29600911 5.14564154 7.29600911 5.14564154 2.29296875 2.21484375 C1.15794922 2.10849609 1.15794922 2.10849609 0 2 Z " fill="#94C650" transform="translate(272,72)"/>
<path d="M0 0 C1.11761719 0.37382812 2.23523438 0.74765625 3.38671875 1.1328125 C19.56413791 6.91456467 33.04117014 16.14104609 45.5703125 27.76953125 C47.17592824 29.24349683 48.81692585 30.67991791 50.4921875 32.07421875 C65.57178003 44.78147663 77.3487992 64.58109617 79.22314453 84.35400391 C80.95752961 111.94649375 69.8023347 137.03970416 51.98583984 157.67114258 C48.34111139 161.76249697 44.5320044 165.87643807 40 169 C39.34 169 38.68 169 38 169 C38 169.66 38 170.32 38 171 C6.13210438 189.79035746 -37.31301635 196.96127041 -73.4765625 188.265625 C-80.26852159 186.45328522 -86.61483558 183.9379138 -93 181 C-94.02222656 180.54882812 -95.04445313 180.09765625 -96.09765625 179.6328125 C-104.44000775 175.74191338 -111.79823046 170.68502654 -119 165 C-119.86367187 164.32066406 -120.72734375 163.64132812 -121.6171875 162.94140625 C-130.19496124 155.27765758 -135.47373277 144.92566695 -141.19775391 135.09423828 C-142.97537675 132.04227514 -144.77137644 129.00196633 -146.57421875 125.96484375 C-149.23460334 121.48160995 -151.88994594 116.99569728 -154.51171875 112.48974609 C-155.54110276 110.76768932 -156.60912779 109.06836204 -157.70703125 107.38916016 C-163.07482659 99.0593349 -163.07482659 99.0593349 -162 93 C-160.87250544 89.44600591 -159.47516463 86.04746545 -158 82.625 C-157.58991699 81.65473877 -157.17983398 80.68447754 -156.75732422 79.68481445 C-155.52104465 76.78258732 -154.26352472 73.89045256 -153 71 C-152.6587207 70.20609863 -152.31744141 69.41219727 -151.96582031 68.59423828 C-143.28113717 48.51146182 -132.0205769 30.69490767 -113 19 C-112.13979248 18.47043701 -112.13979248 18.47043701 -111.26220703 17.93017578 C-80.28348683 -0.90443632 -35.07005788 -12.49294262 0 0 Z M-70 15 C-71.22847656 15.35964844 -72.45695312 15.71929687 -73.72265625 16.08984375 C-87.80854931 20.48890814 -100.43659614 26.7687112 -112 36 C-112.65355469 36.47824219 -113.30710937 36.95648438 -113.98046875 37.44921875 C-128.76240437 48.83750911 -136.22581803 73.30033152 -143 90 C-143.43570313 91.04929687 -143.87140625 92.09859375 -144.3203125 93.1796875 C-146.53252571 102.35910093 -140.58756813 112.29631944 -136 120 C-131.59020056 126.47352815 -126.69436207 132.57377918 -121.80615234 138.68847656 C-120.28287074 140.63798052 -118.84626328 142.60280647 -117.45703125 144.6484375 C-106.36714756 160.83592251 -86.64353017 170.34487875 -68 175 C-67.35764404 175.17515137 -66.71528809 175.35030273 -66.0534668 175.53076172 C-59.59580376 177.16504104 -53.32890752 177.38421946 -46.6875 177.375 C-45.52484619 177.37411377 -44.36219238 177.37322754 -43.16430664 177.37231445 C-13.97059642 176.98749271 15.21005087 171.3942746 37.16015625 150.9921875 C49.53119356 138.05547652 57.27918191 121.32191664 61 104 C61.18433594 103.19046875 61.36867188 102.3809375 61.55859375 101.546875 C64.30681733 85.68986816 59.90182495 69.36693871 51.1015625 56.1484375 C33.63032715 31.73916645 8.61158621 15.35927778 -20.8125 9.43359375 C-37.58300728 7.15231151 -53.93464739 10.2806999 -70 15 Z " fill="#C38450" transform="translate(200,235)"/>
<path d="M0 0 C4.23270427 0.00585536 8.46497953 -0.01133478 12.69761276 -0.03434467 C15.99719746 -0.04911774 19.29667868 -0.04995014 22.59629059 -0.04683495 C24.15745154 -0.04734389 25.71861895 -0.05250026 27.27974701 -0.06264687 C45.82957951 -0.16870924 45.82957951 -0.16870924 52.85644531 5.31567383 C55.53305508 10.90164204 55.01533106 16.76677752 53.35644531 22.62817383 C51.24938811 25.37373321 49.72749831 26.34370207 46.79394531 28.06567383 C42.9318682 30.4227225 41.68169359 31.97943089 40.60644531 36.37817383 C40.40792969 37.23282227 40.20941406 38.0874707 40.00488281 38.96801758 C38.74954732 43.11338367 37.10247092 44.23829622 33.29394531 46.31567383 C26.28048439 47.45997535 19.15137834 45.77581166 12.29394531 44.31567383 C12.61621094 44.91250977 12.93847656 45.5093457 13.27050781 46.12426758 C14.64340343 49.06394101 14.70323933 51.10953739 14.29394531 54.31567383 C12.2175503 56.32160295 10.87292468 57.23296249 7.99707031 57.64379883 C6.78277344 57.60512695 6.78277344 57.60512695 5.54394531 57.56567383 C4.21943359 57.52700195 4.21943359 57.52700195 2.86816406 57.48754883 C0.02943505 57.29801305 -2.77304307 56.93081164 -5.59277344 56.55786133 C-15.30120514 55.44524993 -21.91377199 57.09921128 -30.70605469 61.31567383 C-32.37038937 62.07083464 -34.03683767 62.82136722 -35.70605469 63.56567383 C-36.38667969 63.88020508 -37.06730469 64.19473633 -37.76855469 64.51879883 C-43.23852633 66.76854523 -48.4415372 67.21293548 -54.01855469 65.00317383 C-56.70605469 63.31567383 -56.70605469 63.31567383 -58.70605469 60.31567383 C-58.70605469 59.32567383 -58.70605469 58.33567383 -58.70605469 57.31567383 C-59.44210938 57.33887695 -60.17816406 57.36208008 -60.93652344 57.38598633 C-61.91234375 57.4040332 -62.88816406 57.42208008 -63.89355469 57.44067383 C-64.85648438 57.46387695 -65.81941406 57.48708008 -66.81152344 57.51098633 C-69.83616002 57.30689479 -71.92751477 56.4578025 -74.70605469 55.31567383 C-75.69605469 55.81067383 -75.69605469 55.81067383 -76.70605469 56.31567383 C-88.17462119 57.33510196 -96.72330798 54.393519 -105.70605469 47.31567383 C-110.68560584 42.76912712 -111.527546 38.42734663 -112.88574219 32.07348633 C-113.95337216 28.48421604 -116.06198916 26.89015869 -118.70605469 24.31567383 C-119.59805109 21.3119028 -120.08004147 18.43612601 -119.70605469 15.31567383 C-118.60839844 13.55395508 -118.60839844 13.55395508 -116.70605469 12.31567383 C-113.77246094 12.08520508 -113.77246094 12.08520508 -110.26855469 12.12817383 C-103.05725247 11.79970872 -98.99071303 9.55401883 -93.32714844 5.22583008 C-88.74631975 1.88749144 -85.21730983 1.05048109 -79.58105469 1.12817383 C-78.0303125 1.1378418 -78.0303125 1.1378418 -76.44824219 1.14770508 C-73.70605469 1.31567383 -73.70605469 1.31567383 -70.70605469 2.31567383 C-62.88450894 2.71701806 -55.08968092 2.55514726 -47.315979 1.6035614 C-31.60655315 -0.26702084 -15.79416543 -0.02385789 0 0 Z " fill="#C3834F" transform="translate(196.7060546875,331.684326171875)"/>
<path d="M0 0 C7.70516891 2.20775958 14.92623321 5.26291566 22 9 C27.69538749 10.8984625 34.15987618 10.34323197 40.0625 9.5 C43.16500449 9.10603118 46.13131501 8.8410565 49.25 8.75 C50.46429688 8.71132813 50.46429688 8.71132813 51.703125 8.671875 C54.57906859 9.08272408 55.9214268 9.99649942 58 12 C58.5219573 15.50457046 58.51852186 17.25603385 56.47265625 20.19140625 C55.98667969 20.78824219 55.50070313 21.38507813 55 22 C55.75023437 21.855625 56.50046875 21.71125 57.2734375 21.5625 C74.29513739 18.47544108 74.29513739 18.47544108 80.4375 21.9375 C83.22492271 25.26881007 84.12792861 27.8198602 85.296875 31.91796875 C86.60962412 35.80516475 89.0608201 37.49604981 92.5625 39.375 C95.88974435 41.5931629 96.7106699 43.19986919 98 47 C98.60628295 52.03510593 98.77938717 56.37345287 96.5625 61 C88.74061713 67.10488419 79.09848382 66.42887165 69.65234375 66.36328125 C68.15328471 66.36276068 66.654225 66.36328597 65.15516663 66.36479187 C62.01406635 66.36470246 58.87322429 66.35435502 55.73217773 66.33618164 C51.78226647 66.31378632 47.83273783 66.31306863 43.88278103 66.31946278 C28.85826078 66.337536 13.98345817 66.14867853 -0.98342896 64.68643188 C-6.90998926 64.12017677 -12.7309288 63.8712459 -18.68359375 63.98046875 C-19.7912484 64.00050713 -19.7912484 64.00050713 -20.92127991 64.02095032 C-23.84356946 64.08421057 -26.76464819 64.16360788 -29.68579102 64.26733398 C-40.19971799 64.61472297 -47.3729598 63.94628036 -55.55078125 56.7578125 C-58.9004807 54.35372198 -62.19449889 54.1713132 -66.1875 53.875 C-73.75874636 53.24125364 -73.75874636 53.24125364 -76 51 C-76.50312928 46.63954624 -76.24536764 44.44984067 -74.125 40.5625 C-73.42375 39.716875 -72.7225 38.87125 -72 38 C-71.34 38 -70.68 38 -70 38 C-69.85304688 37.14277344 -69.70609375 36.28554688 -69.5546875 35.40234375 C-67.83724841 26.6473525 -65.985432 21.56950148 -58.703125 16.35546875 C-50.85799534 11.34871675 -43.37929401 8.21839217 -34 9 C-33.113125 9.391875 -32.22625 9.78375 -31.3125 10.1875 C-30.549375 10.455625 -29.78625 10.72375 -29 11 C-27.32936253 10.00664799 -25.66324401 9.00568242 -24 8 C-22.046875 8.00390625 -22.046875 8.00390625 -19.9375 8.1875 C-18.638125 8.125625 -17.33875 8.06375 -16 8 C-13.60869555 5.20485402 -13.60869555 5.20485402 -12 2 C-7.94975407 -0.70016395 -4.67736053 -0.64673002 0 0 Z " fill="#C3834F" transform="translate(153,259)"/>
<path d="M0 0 C6.05563239 0.09659291 6.05563239 0.09659291 8.41845703 2.35693359 C9.76010347 4.24621236 10.92542981 6.16833619 12.0625 8.1875 C12.49022705 8.91509521 12.9179541 9.64269043 13.35864258 10.39233398 C33.10458011 44.69263093 40.50108392 88.90945872 36 128 C36.76699219 127.81824219 37.53398437 127.63648438 38.32421875 127.44921875 C45.74674778 125.76815817 53.15562998 124.45098143 60.6875 123.375 C61.54110107 123.25213623 62.39470215 123.12927246 63.27416992 123.00268555 C74.4306969 121.45284154 85.43937592 120.8134649 96.69702148 120.81469727 C98.9303688 120.81250699 101.16322359 120.79426878 103.39648438 120.77539062 C111.7668327 120.7409457 119.80070708 121.16485788 128 123 C128.90927246 123.20093262 129.81854492 123.40186523 130.75537109 123.60888672 C137.9326451 125.37986917 144.40923311 128.25772369 151.0625 131.4375 C165.43026139 138.78816298 165.43026139 138.78816298 181 142 C182.68236471 141.37400383 184.3523962 140.71247732 186 140 C187.67688081 140.27741603 189.3468125 140.60520895 191 141 C194.95328993 168.13880113 178.18193428 201.8202285 162.40869141 223.15209961 C161.94382324 223.76190674 161.47895508 224.37171387 161 225 C160.52820313 225.80050781 160.05640625 226.60101563 159.5703125 227.42578125 C153.12133338 237.99761518 143.72082545 247.27917455 135 256 C134.05688145 257.120294 133.11984093 258.24572074 132.1875 259.375 C128.85263259 263.31620693 125.15352537 266.92227512 121 270 C120.34 270 119.68 270 119 270 C119 270.66 119 271.32 119 272 C117.44549377 273.04424846 115.8549939 274.03514818 114.25 275 C109.41922546 278.28601073 107.75611023 280.79961382 105.97265625 286.2578125 C102.81584921 295.15772632 96.97730965 303.64824225 90 310 C89.34 310 88.68 310 88 310 C87.67 310.99 87.34 311.98 87 313 C73.82747921 326.93039185 56.8294908 334.94774749 39 341 C37.20949219 341.60908203 37.20949219 341.60908203 35.3828125 342.23046875 C14.60435105 348.52766111 -10.73484078 348.34456628 -30.296875 338.30859375 C-32.92340389 336.71913675 -32.92340389 336.71913675 -35.75 337.4375 C-38.54535226 338.78141935 -41.05823102 340.24261025 -43.6875 341.875 C-69.29231912 357.62886326 -111.5104933 361.09151087 -140.36889648 355.54467773 C-142.39970164 355.03490275 -144.38199361 354.45353713 -146.375 353.8125 C-147.43654297 353.48475586 -147.43654297 353.48475586 -148.51953125 353.15039062 C-175.22760856 344.69997401 -197.39500102 330.6941857 -211.40625 305.82421875 C-213.10015969 302.82251113 -214.90222856 299.91252344 -216.76171875 297.01171875 C-217.78623314 295.34728686 -218.76298292 293.65355955 -219.7265625 291.953125 C-221.4847688 288.85458943 -223.32973402 285.81779117 -225.19921875 282.78515625 C-225.76833984 281.85123047 -226.33746094 280.91730469 -226.92382812 279.95507812 C-228.10106571 278.02430419 -229.28862489 276.09978642 -230.48632812 274.18164062 C-234.65746695 267.2804748 -236.99984021 262.48023638 -235.1796875 254.32421875 C-234.74914062 253.12410156 -234.31859375 251.92398438 -233.875 250.6875 C-233.64272705 250.03507324 -233.4104541 249.38264648 -233.17114258 248.71044922 C-231.09043072 242.98127914 -228.62821773 237.49276021 -226 232 C-225.40513393 230.67947207 -224.81287842 229.35776633 -224.22265625 228.03515625 C-211.70669833 200.25806942 -192.98438209 180.2172078 -164.24609375 169.109375 C-153.09539352 165 -153.09539352 165 -149 165 C-148.75765625 163.87464844 -148.5153125 162.74929687 -148.265625 161.58984375 C-142.40282402 134.61149836 -134.62442548 104.4900089 -115.37890625 83.56640625 C-113.84299285 81.82164343 -112.55901987 79.98214138 -111.25 78.0625 C-110.5075 77.051875 -109.765 76.04125 -109 75 C-108.34 75 -107.68 75 -107 75 C-106.77957031 74.46246094 -106.55914062 73.92492187 -106.33203125 73.37109375 C-104.54948697 70.19806038 -102.1640849 67.69695486 -99.6875 65.0625 C-98.9769043 64.29389648 -98.9769043 64.29389648 -98.25195312 63.50976562 C-95.2389425 60.26593613 -92.13826618 57.12327446 -89 54 C-88.20722656 53.17242187 -87.41445312 52.34484375 -86.59765625 51.4921875 C-68.52236298 32.83202341 -49.34408079 23.25502677 -24.49609375 16.08789062 C-11.85151705 12.40641128 -11.85151705 12.40641128 -2.4375 3.6875 C-1.96183594 2.99011719 -1.48617187 2.29273437 -0.99609375 1.57421875 C-0.50302734 0.79498047 -0.50302734 0.79498047 0 0 Z M0 2 C-0.51304687 3.06992188 -1.02609375 4.13984375 -1.5546875 5.2421875 C-3.89535065 9.31121435 -6.92915057 11.19618011 -11.125 13.125 C-11.82077148 13.45918945 -12.51654297 13.79337891 -13.23339844 14.13769531 C-21.18348593 17.79636163 -29.5451657 19.86263435 -38 22 C-54.65105672 26.31322554 -67.48937284 36.63442581 -80 48 C-81.09692365 48.97608434 -82.19456947 49.95135776 -83.29296875 50.92578125 C-88.24258943 55.34979863 -92.98649136 59.84140071 -97.25 64.9453125 C-98.51965258 66.43602067 -99.83947963 67.88445175 -101.1875 69.3046875 C-106.51766778 74.92528109 -111.21194347 80.79132941 -115.75 87.0625 C-116.54591553 88.15957275 -116.54591553 88.15957275 -117.35791016 89.27880859 C-134.10643819 112.77276315 -141.69359086 137.97757393 -147 166 C-147.76111084 166.17305664 -148.52222168 166.34611328 -149.30639648 166.52441406 C-155.86356994 168.07860085 -161.94452057 169.93098513 -168.0625 172.75 C-168.83271484 173.09998047 -169.60292969 173.44996094 -170.39648438 173.81054688 C-180.5979701 178.54725687 -189.47988908 184.67715957 -198 192 C-198.72703125 192.59554687 -199.4540625 193.19109375 -200.203125 193.8046875 C-214.19506397 206.33703572 -221.83319673 226.06462877 -229 243 C-229.30083496 243.69867188 -229.60166992 244.39734375 -229.91162109 245.1171875 C-232.57168772 251.33511306 -234.45711349 256.15094623 -234 263 C-232.71001929 266.16982737 -232.71001929 266.16982737 -230.7734375 269.21875 C-230.4340213 269.79050461 -230.0946051 270.36225922 -229.74490356 270.95133972 C-228.63636128 272.81022463 -227.50649241 274.65501097 -226.375 276.5 C-225.59713061 277.79071411 -224.82045011 279.08214543 -224.04492188 280.37426758 C-222.46877651 282.99495501 -220.88374329 285.60995578 -219.29199219 288.22119141 C-217.18468747 291.68407291 -215.12248577 295.17208471 -213.0703125 298.66796875 C-211.88091532 300.67489833 -210.69085126 302.68143289 -209.5 304.6875 C-208.71181885 306.03714844 -208.71181885 306.03714844 -207.90771484 307.4140625 C-194.0231659 330.47550502 -170.67081927 344.42583023 -145.16015625 351.3828125 C-113.67394665 359.07293405 -74.00304029 354.32248903 -45 340 C-43.437612 339.03269453 -41.89051329 338.03920911 -40.375 337 C-37 335 -37 335 -33.75 334.875 C-30.48605238 335.85418429 -27.55532798 337.0204999 -24.4375 338.375 C0.48668224 349.05679239 26.69456687 343.47152971 51 334 C61.15599259 329.87800207 69.69953358 324.0386556 78 317 C78.55075195 316.53964355 79.10150391 316.07928711 79.66894531 315.60498047 C97.68740048 300.38393491 108.41492341 281.29746372 112.51953125 258.05859375 C113.34965726 247.94231237 108.23110288 238.89044023 104 230 C103.48759766 228.90703613 103.48759766 228.90703613 102.96484375 227.79199219 C98.56923769 218.47072169 93.57861516 209.66465759 88 201 C88.88429688 200.87882813 89.76859375 200.75765625 90.6796875 200.6328125 C94.65610111 199.87495485 97.96271792 198.40001839 101.6328125 196.7421875 C106.10666907 195.3394932 109.64636735 197.64566192 113.8125 199.375 C131.36682575 206.12666375 153.11073161 208.23788479 171.08081055 201.18310547 C173.39768117 199.75484506 173.94524006 198.70261549 175 196.21875 C175.33 195.45820313 175.66 194.69765625 176 193.9140625 C176.33 193.11742187 176.66 192.32078125 177 191.5 C177.33 190.73429688 177.66 189.96859375 178 189.1796875 C179.0209848 186.79473082 180.01171853 184.39867149 181 182 C181.34450195 181.19127441 181.68900391 180.38254883 182.04394531 179.54931641 C184.52825797 173.59423833 186.2901367 167.65516666 187.75 161.375 C187.97042969 160.48554688 188.19085938 159.59609375 188.41796875 158.6796875 C189.68861704 153.31297422 190.23130643 148.51280322 190 143 C187 141.66666667 187 141.66666667 184 143 C172.42648601 144.89306549 161.98253078 139.05625502 151.953125 133.95703125 C148.18964344 132.05847893 144.37572731 130.43604598 140.4375 128.9375 C139.83615234 128.69451172 139.23480469 128.45152344 138.61523438 128.20117188 C126.12635812 123.44049812 113.5160517 122.48197741 100.3125 122.625 C99.1838855 122.63098206 99.1838855 122.63098206 98.0324707 122.63708496 C87.63611831 122.70109787 77.34479518 123.1644306 67 124.25 C65.96012939 124.35908691 64.92025879 124.46817383 63.84887695 124.58056641 C54.10999962 125.75141071 44.57086835 127.89531855 35 130 C35.00112793 128.7939209 35.00225586 127.5878418 35.00341797 126.34521484 C34.97518011 101.93702015 34.51043343 78.67619531 28 55 C27.5366626 53.30762207 27.5366626 53.30762207 27.06396484 51.58105469 C23.34213054 38.37356729 18.80454954 25.92845733 12 14 C11.37867188 12.88496094 10.75734375 11.76992187 10.1171875 10.62109375 C7.29600911 5.14564154 7.29600911 5.14564154 2.29296875 2.21484375 C1.15794922 2.10849609 1.15794922 2.10849609 0 2 Z " fill="#99CA52" transform="translate(272,72)"/>
<path d="M0 0 C6.05563239 0.09659291 6.05563239 0.09659291 8.41845703 2.35693359 C9.76010347 4.24621236 10.92542981 6.16833619 12.0625 8.1875 C12.49022705 8.91509521 12.9179541 9.64269043 13.35864258 10.39233398 C33.10458011 44.69263093 40.50108392 88.90945872 36 128 C36.76699219 127.81824219 37.53398437 127.63648438 38.32421875 127.44921875 C45.74674778 125.76815817 53.15562998 124.45098143 60.6875 123.375 C61.54110107 123.25213623 62.39470215 123.12927246 63.27416992 123.00268555 C74.4306969 121.45284154 85.43937592 120.8134649 96.69702148 120.81469727 C98.9303688 120.81250699 101.16322359 120.79426878 103.39648438 120.77539062 C111.7668327 120.7409457 119.80070708 121.16485788 128 123 C128.90927246 123.20093262 129.81854492 123.40186523 130.75537109 123.60888672 C137.9326451 125.37986917 144.40923311 128.25772369 151.0625 131.4375 C165.43026139 138.78816298 165.43026139 138.78816298 181 142 C182.68236471 141.37400383 184.3523962 140.71247732 186 140 C187.67688081 140.27741603 189.3468125 140.60520895 191 141 C194.95328993 168.13880113 178.18193428 201.8202285 162.40869141 223.15209961 C161.94382324 223.76190674 161.47895508 224.37171387 161 225 C160.52820313 225.80050781 160.05640625 226.60101563 159.5703125 227.42578125 C153.12133338 237.99761518 143.72082545 247.27917455 135 256 C134.05688145 257.120294 133.11984093 258.24572074 132.1875 259.375 C128.85263259 263.31620693 125.15352537 266.92227512 121 270 C120.34 270 119.68 270 119 270 C119 270.66 119 271.32 119 272 C117.44549377 273.04424846 115.8549939 274.03514818 114.25 275 C109.41922546 278.28601073 107.75611023 280.79961382 105.97265625 286.2578125 C102.81584921 295.15772632 96.97730965 303.64824225 90 310 C89.34 310 88.68 310 88 310 C87.67 310.99 87.34 311.98 87 313 C73.82747921 326.93039185 56.8294908 334.94774749 39 341 C37.20949219 341.60908203 37.20949219 341.60908203 35.3828125 342.23046875 C14.60435105 348.52766111 -10.73484078 348.34456628 -30.296875 338.30859375 C-32.92340389 336.71913675 -32.92340389 336.71913675 -35.75 337.4375 C-38.54535226 338.78141935 -41.05823102 340.24261025 -43.6875 341.875 C-69.29231912 357.62886326 -111.5104933 361.09151087 -140.36889648 355.54467773 C-142.39970164 355.03490275 -144.38199361 354.45353713 -146.375 353.8125 C-147.43654297 353.48475586 -147.43654297 353.48475586 -148.51953125 353.15039062 C-175.22760856 344.69997401 -197.39500102 330.6941857 -211.40625 305.82421875 C-213.10015969 302.82251113 -214.90222856 299.91252344 -216.76171875 297.01171875 C-217.78623314 295.34728686 -218.76298292 293.65355955 -219.7265625 291.953125 C-221.4847688 288.85458943 -223.32973402 285.81779117 -225.19921875 282.78515625 C-225.76833984 281.85123047 -226.33746094 280.91730469 -226.92382812 279.95507812 C-228.10106571 278.02430419 -229.28862489 276.09978642 -230.48632812 274.18164062 C-234.65746695 267.2804748 -236.99984021 262.48023638 -235.1796875 254.32421875 C-234.74914062 253.12410156 -234.31859375 251.92398438 -233.875 250.6875 C-233.64272705 250.03507324 -233.4104541 249.38264648 -233.17114258 248.71044922 C-231.09043072 242.98127914 -228.62821773 237.49276021 -226 232 C-225.40513393 230.67947207 -224.81287842 229.35776633 -224.22265625 228.03515625 C-211.70669833 200.25806942 -192.98438209 180.2172078 -164.24609375 169.109375 C-153.09539352 165 -153.09539352 165 -149 165 C-148.75765625 163.87464844 -148.5153125 162.74929687 -148.265625 161.58984375 C-142.40282402 134.61149836 -134.62442548 104.4900089 -115.37890625 83.56640625 C-113.84299285 81.82164343 -112.55901987 79.98214138 -111.25 78.0625 C-110.5075 77.051875 -109.765 76.04125 -109 75 C-108.34 75 -107.68 75 -107 75 C-106.77957031 74.46246094 -106.55914062 73.92492187 -106.33203125 73.37109375 C-104.54948697 70.19806038 -102.1640849 67.69695486 -99.6875 65.0625 C-98.9769043 64.29389648 -98.9769043 64.29389648 -98.25195312 63.50976562 C-95.2389425 60.26593613 -92.13826618 57.12327446 -89 54 C-88.20722656 53.17242187 -87.41445312 52.34484375 -86.59765625 51.4921875 C-68.52236298 32.83202341 -49.34408079 23.25502677 -24.49609375 16.08789062 C-11.85151705 12.40641128 -11.85151705 12.40641128 -2.4375 3.6875 C-1.96183594 2.99011719 -1.48617187 2.29273437 -0.99609375 1.57421875 C-0.50302734 0.79498047 -0.50302734 0.79498047 0 0 Z M0 2 C-0.51304687 3.06992188 -1.02609375 4.13984375 -1.5546875 5.2421875 C-3.89535065 9.31121435 -6.92915057 11.19618011 -11.125 13.125 C-11.82077148 13.45918945 -12.51654297 13.79337891 -13.23339844 14.13769531 C-21.18348593 17.79636163 -29.5451657 19.86263435 -38 22 C-54.65105672 26.31322554 -67.48937284 36.63442581 -80 48 C-81.09692365 48.97608434 -82.19456947 49.95135776 -83.29296875 50.92578125 C-88.24258943 55.34979863 -92.98649136 59.84140071 -97.25 64.9453125 C-98.51965258 66.43602067 -99.83947963 67.88445175 -101.1875 69.3046875 C-106.51766778 74.92528109 -111.21194347 80.79132941 -115.75 87.0625 C-116.54591553 88.15957275 -116.54591553 88.15957275 -117.35791016 89.27880859 C-134.10643819 112.77276315 -141.69359086 137.97757393 -147 166 C-147.76111084 166.17305664 -148.52222168 166.34611328 -149.30639648 166.52441406 C-155.86356994 168.07860085 -161.94452057 169.93098513 -168.0625 172.75 C-168.83271484 173.09998047 -169.60292969 173.44996094 -170.39648438 173.81054688 C-180.5979701 178.54725687 -189.47988908 184.67715957 -198 192 C-198.72703125 192.59554687 -199.4540625 193.19109375 -200.203125 193.8046875 C-214.19506397 206.33703572 -221.83319673 226.06462877 -229 243 C-229.30083496 243.69867188 -229.60166992 244.39734375 -229.91162109 245.1171875 C-232.57168772 251.33511306 -234.45711349 256.15094623 -234 263 C-232.71001929 266.16982737 -232.71001929 266.16982737 -230.7734375 269.21875 C-230.4340213 269.79050461 -230.0946051 270.36225922 -229.74490356 270.95133972 C-228.63636128 272.81022463 -227.50649241 274.65501097 -226.375 276.5 C-225.59713061 277.79071411 -224.82045011 279.08214543 -224.04492188 280.37426758 C-222.46877651 282.99495501 -220.88374329 285.60995578 -219.29199219 288.22119141 C-217.18468747 291.68407291 -215.12248577 295.17208471 -213.0703125 298.66796875 C-211.88091532 300.67489833 -210.69085126 302.68143289 -209.5 304.6875 C-208.71181885 306.03714844 -208.71181885 306.03714844 -207.90771484 307.4140625 C-194.0231659 330.47550502 -170.67081927 344.42583023 -145.16015625 351.3828125 C-113.67394665 359.07293405 -74.00304029 354.32248903 -45 340 C-43.437612 339.03269453 -41.89051329 338.03920911 -40.375 337 C-37 335 -37 335 -33.75 334.875 C-30.48605238 335.85418429 -27.55532798 337.0204999 -24.4375 338.375 C0.48668224 349.05679239 26.69456687 343.47152971 51 334 C61.15599259 329.87800207 69.69953358 324.0386556 78 317 C78.55075195 316.53964355 79.10150391 316.07928711 79.66894531 315.60498047 C90.58351613 306.38492369 98.89987484 296.35523794 104.4375 283.125 C107.10196288 276.86525061 110.22840759 273.64276444 115.96875 270.015625 C119.51757933 267.65583643 122.52622303 264.97450014 125.625 262.0625 C126.17446289 261.54695557 126.72392578 261.03141113 127.29003906 260.50024414 C134.53973681 253.64426876 141.63648966 246.6975796 148 239 C148.74894531 238.10152344 149.49789063 237.20304688 150.26953125 236.27734375 C160.5049627 223.52738111 168.1932874 209.15936657 175.296875 194.48046875 C176.28490818 192.46134589 177.30180459 190.45488665 178.390625 188.48828125 C185.59113926 175.43165255 190.55326617 157.93818647 190 143 C187 141.66666667 187 141.66666667 184 143 C172.42648601 144.89306549 161.98253078 139.05625502 151.953125 133.95703125 C148.18964344 132.05847893 144.37572731 130.43604598 140.4375 128.9375 C139.83615234 128.69451172 139.23480469 128.45152344 138.61523438 128.20117188 C126.12635812 123.44049812 113.5160517 122.48197741 100.3125 122.625 C99.1838855 122.63098206 99.1838855 122.63098206 98.0324707 122.63708496 C87.63611831 122.70109787 77.34479518 123.1644306 67 124.25 C65.96012939 124.35908691 64.92025879 124.46817383 63.84887695 124.58056641 C54.10999962 125.75141071 44.57086835 127.89531855 35 130 C35.00112793 128.7939209 35.00225586 127.5878418 35.00341797 126.34521484 C34.97518011 101.93702015 34.51043343 78.67619531 28 55 C27.5366626 53.30762207 27.5366626 53.30762207 27.06396484 51.58105469 C23.34213054 38.37356729 18.80454954 25.92845733 12 14 C11.37867188 12.88496094 10.75734375 11.76992187 10.1171875 10.62109375 C7.29600911 5.14564154 7.29600911 5.14564154 2.29296875 2.21484375 C1.15794922 2.10849609 1.15794922 2.10849609 0 2 Z " fill="#F9F9F5" transform="translate(272,72)"/>
<path d="M0 0 C0.99 0.495 0.99 0.495 2 1 C3.8966445 26.37789918 3.8966445 26.37789918 0.0078125 31.515625 C-2.87378653 33.83760915 -5.66533908 35.40289405 -9 37 C-11.04655606 38.34676592 -13.08811484 39.70115178 -15.125 41.0625 C-35.89932173 53.40950254 -63.38266139 66.12206101 -88 65 C-86.40811999 59.54715136 -83.98466678 54.73268692 -81.3125 49.75 C-80.90322266 48.9353125 -80.49394531 48.120625 -80.07226562 47.28125 C-77.92750086 43.30141 -76.88495718 41.37153911 -72.61328125 39.578125 C-71.42089844 39.38734375 -70.22851562 39.1965625 -69 39 C-43.44902546 32.04735387 -18.63962645 19.06616252 0 0 Z " fill="#63A03D" transform="translate(304,161)"/>
<path d="M0 0 C-0.14074951 1.07822021 -0.28149902 2.15644043 -0.42651367 3.26733398 C-1.83239634 14.56485308 -2.36141551 25.68379353 -2.3125 37.0625 C-2.31134186 37.9052951 -2.31018372 38.74809021 -2.30899048 39.61642456 C-2.2600178 57.74123268 -0.96741268 75.58659244 3.44921875 93.23046875 C4.9413511 100.73346048 2.91771798 104.79061715 -0.8125 111.1875 C-1.26431641 111.99380859 -1.71613281 112.80011719 -2.18164062 113.63085938 C-4.19431558 117.16552795 -5.99979186 120.21436474 -9 123 C-13.68636536 96.17132985 -17.26237481 69.98358214 -17.89892578 42.70605469 C-17.98815585 39.43428548 -18.11555863 36.16749689 -18.25683594 32.89778137 C-18.36621449 30.16032174 -18.43958497 27.42264004 -18.50482178 24.68380737 C-18.56129845 22.72908689 -18.65742274 20.77564014 -18.75439453 18.82250977 C-18.90329881 10.12216149 -18.90329881 10.12216149 -16.31323242 6.90454102 C-14.27163407 5.34907126 -12.28426365 4.16175973 -10 3 C-9.02498535 2.37399902 -9.02498535 2.37399902 -8.03027344 1.73535156 C-3.4807377 -1.1602459 -3.4807377 -1.1602459 0 0 Z " fill="#64A03D" transform="translate(222,101)"/>
<path d="M0 0 C-0.10284302 0.97960693 -0.10284302 0.97960693 -0.20776367 1.97900391 C-1.10633211 11.44413933 -1.27875129 20.87479522 -1.3125 30.375 C-1.31678009 31.21161163 -1.32106018 32.04822327 -1.32546997 32.91018677 C-1.35740392 44.88971436 -0.55683894 56.14041936 2.22265625 67.83984375 C4.12461766 76.81887085 0.11310912 83.53887927 -3.875 91.375 C-4.41769531 92.47972656 -4.96039063 93.58445312 -5.51953125 94.72265625 C-6.04675781 95.77066406 -6.57398438 96.81867188 -7.1171875 97.8984375 C-7.59784668 98.85411621 -8.07850586 99.80979492 -8.57373047 100.79443359 C-10 103 -10 103 -13 104 C-13.70081038 100.09090675 -14.39419036 96.18056844 -15.08129883 92.26904297 C-15.42871558 90.29979246 -15.78166929 88.33152132 -16.13476562 86.36328125 C-18.45258366 73.12820438 -19.2355501 60.15950387 -19.25 46.75 C-19.25133942 46.01297852 -19.25267883 45.27595703 -19.25405884 44.51660156 C-19.25017838 34.61259774 -18.88710425 24.84408065 -17.6875 15 C-17.56987305 14.00452148 -17.45224609 13.00904297 -17.33105469 11.98339844 C-16.62238166 6.91031453 -16.62238166 6.91031453 -16 5 C-13.20083611 3.13389074 -11.18061731 2.31214617 -8 1.375 C-6.700625 0.98441406 -6.700625 0.98441406 -5.375 0.5859375 C-3 0 -3 0 0 0 Z " fill="#64A03D" transform="translate(240,93)"/>
<path d="M0 0 C4.81759066 4.15635273 5.4903035 10.45151751 6.6875 16.4375 C4.51152468 27.71300848 -8.37170934 39.14590855 -17.6015625 45.6171875 C-23.48016179 49.54070301 -29.56298216 53.0740828 -36 56 C-36.9075 56.433125 -37.815 56.86625 -38.75 57.3125 C-41.32334128 58.09879872 -42.47214335 57.73817663 -45 57 C-43.34514049 52.43823641 -41.62429514 47.90897523 -39.8425293 43.39526367 C-39.24808274 41.86304439 -38.67095959 40.32396916 -38.11303711 38.77807617 C-34.15533466 27.86162026 -30.09442375 21.95946816 -19.54541016 16.77172852 C-11.60199352 12.80220817 -5.46485643 6.90297654 0 0 Z " fill="#63A03D" transform="translate(292,108)"/>
<path d="M0 0 C10.11180865 2.2796348 20.49803704 1.66160892 30.80078125 1.484375 C30.03384785 3.52750984 29.26204923 5.56881872 28.48828125 7.609375 C28.05902344 8.74632812 27.62976563 9.88328125 27.1875 11.0546875 C26.72988281 12.18648438 26.27226562 13.31828125 25.80078125 14.484375 C25.12789062 16.15693359 25.12789062 16.15693359 24.44140625 17.86328125 C22.80078125 20.484375 22.80078125 20.484375 20.4609375 21.25390625 C19.17509766 21.27517578 19.17509766 21.27517578 17.86328125 21.296875 C14.39309478 21.35980371 14.39309478 21.35980371 11.00244141 21.97607422 C-5.20175753 25.71716339 -26.55044092 23.31350741 -41.19921875 15.484375 C-40.19921875 12.484375 -40.19921875 12.484375 -37.54711914 10.96630859 C-36.39203857 10.44375488 -35.23695801 9.92120117 -34.046875 9.3828125 C-33.43154404 9.10088043 -32.81621307 8.81894836 -32.18223572 8.5284729 C-30.21305714 7.62888396 -28.23766823 6.74397798 -26.26171875 5.859375 C-24.93380522 5.25617509 -23.60632531 4.65201961 -22.27929688 4.046875 C-19.84903548 2.93976725 -17.41608125 1.83957659 -14.98071289 0.74365234 C-9.5574309 -1.71165254 -5.7810999 -1.35542662 0 0 Z " fill="#99CA52" transform="translate(422.19921875,251.515625)"/>
<path d="M0 0 C0.66 0 1.32 0 2 0 C2.19021048 5.42099861 1.836578 10.42520998 1.0078125 15.7890625 C-0.18306318 24.14171419 -0.31172086 32.38825197 -0.25 40.8125 C-0.24723053 41.55701416 -0.24446106 42.30152832 -0.24160767 43.06860352 C-0.1933419 54.14982837 0.19223301 65.05166228 2 76 C2.12842285 76.78842285 2.2568457 77.5768457 2.38916016 78.38916016 C2.92041584 81.62269863 3.45216854 84.85527961 4.03442383 88.08007812 C4.69220481 91.76534369 5.16192697 95.25359872 5 99 C7.34058637 96.87219421 8.70700306 94.88437779 10 92 C10.66 92 11.32 92 12 92 C10.125 97.75 10.125 97.75 9 100 C35.70836031 96.09474395 62.91459164 80.09002503 81.35546875 60.65234375 C81.89816406 60.10707031 82.44085938 59.56179687 83 59 C83.33 59 83.66 59 84 59 C84 60.65 84 62.3 84 64 C83.42894531 64.2475 82.85789062 64.495 82.26953125 64.75 C79.64476031 66.19565697 77.84143774 67.91674416 75.6875 70 C60.41463338 83.89653271 35.6021933 100.44996991 14.52124023 102.20654297 C10.39825534 102.61624692 7.89261314 102.97504612 5.09643555 106.18579102 C3.35918486 109.06063355 1.87341045 111.96374728 0.4375 115 C-0.08134766 116.02351563 -0.60019531 117.04703125 -1.13476562 118.1015625 C-2.45609467 120.72003941 -3.73741531 123.3528615 -5 126 C-5.495 126.99 -5.495 126.99 -6 128 C13.272079 124.55168794 13.272079 124.55168794 32 119 C33.08643799 118.60022949 33.08643799 118.60022949 34.19482422 118.19238281 C52.30249133 111.45074784 68.21938142 103.53190323 83 91 C83.33 91.99 83.66 92.98 84 94 C59.89780259 114.81295635 24.18361734 130.46535863 -8 129 C-8.2990625 129.93070313 -8.598125 130.86140625 -8.90625 131.8203125 C-9.96341709 134.89364826 -11.12842247 137.3485985 -13 140 C-13.66 140 -14.32 140 -15 140 C-13.94124926 136.59687262 -12.99097846 133.98646769 -11 131 C-10.76465575 125.39656542 -12.23536631 119.70094634 -13.375 114.25 C-14.65672976 108.02266908 -15.68695028 101.79717952 -16.5625 95.5 C-16.67706543 94.70239258 -16.79163086 93.90478516 -16.90966797 93.08300781 C-19.31697118 75.2382325 -20.3615305 57.28519992 -20.74291992 39.29418945 C-20.81411458 36.11541035 -20.90984598 32.9378817 -21.00585938 29.75976562 C-21.05355671 27.72920074 -21.09983846 25.69860199 -21.14453125 23.66796875 C-21.17561478 22.72237595 -21.2066983 21.77678314 -21.23872375 20.80253601 C-21.25251572 19.93594864 -21.26630768 19.06936127 -21.28051758 18.17651367 C-21.30810905 17.03480965 -21.30810905 17.03480965 -21.33625793 15.87004089 C-21.22529282 15.2529274 -21.1143277 14.6358139 -21 14 C-20.01 13.34 -19.02 12.68 -18 12 C-17.97240852 12.97455391 -17.97240852 12.97455391 -17.94425964 13.96879578 C-18.1770969 70.13908719 -18.1770969 70.13908719 -8 125 C-7.73783691 124.50072998 -7.47567383 124.00145996 -7.20556641 123.48706055 C-6.01374241 121.21964306 -4.81939956 118.95356175 -3.625 116.6875 C-3.2125 115.90181641 -2.8 115.11613281 -2.375 114.30664062 C-1.77558594 113.1706543 -1.77558594 113.1706543 -1.1640625 112.01171875 C-0.79748535 111.31522217 -0.4309082 110.61872559 -0.05322266 109.90112305 C0.87953389 108.21744775 1.93232138 106.60151793 3 105 C3.23750471 99.34512586 1.73540358 93.6184974 0.5625 88.125 C-5.07590648 60.61012917 -5.78150603 28.71179406 -1 1 C-0.67 0.67 -0.34 0.34 0 0 Z " fill="#91C44E" transform="translate(222,98)"/>
<path d="M0 0 C4.29 1.65 8.58 3.3 13 5 C12.236875 5.86625 11.47375 6.7325 10.6875 7.625 C2.77680829 16.91959523 -4.43198784 25.95472947 -9.85546875 36.94140625 C-14.87758182 44.10409211 -24.18363426 47.17561052 -31.875 50.8125 C-33.44121094 51.56563477 -33.44121094 51.56563477 -35.0390625 52.33398438 C-42.7401892 56 -42.7401892 56 -45 56 C-38.44435297 34.2745224 -17.14996823 14.10108499 0 0 Z " fill="#99CA51" transform="translate(425,207)"/>
<path d="M0 0 C0.01981934 0.56807373 0.03963867 1.13614746 0.06005859 1.72143555 C0.5648383 16.33858859 0.5648383 16.33858859 2.5 30.8203125 C2.7475 32.39425781 2.7475 32.39425781 3 34 C3.16878662 34.74580322 3.33757324 35.49160645 3.51147461 36.26000977 C5.10337367 45.48308028 1.37901699 52.56561751 -2.4375 60.6875 C-3.07061882 62.08165844 -3.70149749 63.47683645 -4.33007812 64.87304688 C-5.86107727 68.26083939 -7.42190396 71.63384118 -9 75 C-9.66 75 -10.32 75 -11 75 C-15.80809845 51.39108574 -17.32788225 26.84199418 -13 3 C-11.39743892 2.49487756 -9.79288208 1.99608373 -8.1875 1.5 C-7.29417969 1.2215625 -6.40085938 0.943125 -5.48046875 0.65625 C-3 0 -3 0 0 0 Z " fill="#64A03D" transform="translate(255,89)"/>
<path d="M0 0 C0.33 0 0.66 0 1 0 C1.33 1.98 1.66 3.96 2 6 C3.13179688 5.7834375 4.26359375 5.566875 5.4296875 5.34375 C6.91144021 5.06240455 8.39321204 4.78115977 9.875 4.5 C10.62136719 4.35691406 11.36773437 4.21382812 12.13671875 4.06640625 C17.7734375 3 17.7734375 3 20 3 C18.57417912 6.07956432 16.86591031 8.65168407 14.8046875 11.34375 C14.1744165 12.17293945 13.54414551 13.00212891 12.89477539 13.85644531 C11.89498657 15.16500488 11.89498657 15.16500488 10.875 16.5 C5.31001263 23.84203657 -0.05269167 31.22340032 -5 39 C-11.43681228 38.48914188 -16.95942424 37.27057103 -23 35 C-19.01225876 26.87760074 -13.60715068 20.03856963 -8 13 C-6.98099609 11.56914062 -6.98099609 11.56914062 -5.94140625 10.109375 C-5.30074219 9.41328125 -4.66007812 8.7171875 -4 8 C-2.68 8 -1.36 8 0 8 C0 5.36 0 2.72 0 0 Z " fill="#99CA53" transform="translate(305,196)"/>
<path d="M0 0 C0.66 0 1.32 0 2 0 C3.18920898 1.63305664 3.18920898 1.63305664 4.49609375 3.91015625 C4.97240234 4.73580078 5.44871094 5.56144531 5.93945312 6.41210938 C6.43380859 7.28673828 6.92816406 8.16136719 7.4375 9.0625 C7.92798828 9.91005859 8.41847656 10.75761719 8.92382812 11.63085938 C16.99508881 25.7365039 16.99508881 25.7365039 16 31 C9.52544533 39.87640559 -2.58875654 49.40587468 -13 53 C-12.84144531 52.47535156 -12.68289063 51.95070312 -12.51953125 51.41015625 C-12.00681788 49.70772125 -11.49674336 48.0044908 -10.98828125 46.30078125 C-10.26325775 43.87926009 -9.53059181 41.46063679 -8.79296875 39.04296875 C-4.90053022 26.18190091 -2.06807092 13.28431439 0 0 Z " fill="#65A13E" transform="translate(276,76)"/>
<path d="M0 0 C-0.16097165 7.46323117 -1.43146283 14.34313121 -3.4375 21.5 C-3.65494873 22.27714355 -3.87239746 23.05428711 -4.09643555 23.85498047 C-5.13699954 27.44083985 -6.25929404 30.68366695 -8 34 C-12.29160791 34.05871491 -16.58311058 34.09383483 -20.875 34.125 C-22.07898438 34.14175781 -23.28296875 34.15851563 -24.5234375 34.17578125 C-31.60751691 34.21428168 -38.12667175 33.76050885 -45 32 C-42.98083385 29.84373236 -41.05536301 28.31069838 -38.48046875 26.87109375 C-37.79476807 26.48107178 -37.10906738 26.0910498 -36.40258789 25.68920898 C-35.67160889 25.27614502 -34.94062988 24.86308105 -34.1875 24.4375 C-22.81027998 17.86332161 -12.36594494 10.64358267 -2.79296875 1.6171875 C-1 0 -1 0 0 0 Z " fill="#99CA52" transform="translate(462,217)"/>
<path d="M0 0 C1.14855469 0.30679688 2.29710937 0.61359375 3.48046875 0.9296875 C5.35398682 1.01507572 7.23001363 1.06009227 9.10546875 1.0546875 C10.00523437 1.05726563 10.905 1.05984375 11.83203125 1.0625 C14.47335045 0.93004446 16.90502327 0.51543864 19.48046875 -0.0703125 C18.15450121 2.96418351 16.85234183 4.72596447 14.234375 6.7421875 C13.23929932 7.51103271 13.23929932 7.51103271 12.22412109 8.29541016 C11.50434082 8.83472168 10.78456055 9.3740332 10.04296875 9.9296875 C9.29740723 10.49349121 8.5518457 11.05729492 7.78369141 11.63818359 C2.12564087 15.85032701 -3.68995101 19.77526695 -9.64453125 23.5546875 C-10.42497803 24.05097656 -11.2054248 24.54726562 -12.00952148 25.05859375 C-16.39440086 27.78515886 -20.71654677 30.03142573 -25.51953125 31.9296875 C-23.72460147 25.80737752 -20.67232447 21.62762559 -16.81005859 16.62744141 C-15.36326268 14.72410831 -13.96894651 12.78662033 -12.5703125 10.84765625 C-11.53407852 9.45719446 -10.49632616 8.0678629 -9.45703125 6.6796875 C-8.97508301 5.99914307 -8.49313477 5.31859863 -7.99658203 4.61743164 C-4.38922313 -0.08768703 -4.38922313 -0.08768703 0 0 Z " fill="#99CA51" transform="translate(441.51953125,214.0703125)"/>
<path d="M0 0 C0.33 0 0.66 0 1 0 C0.66350541 14.7751714 -3.61461778 29.29246087 -8.1875 43.25 C-8.43717529 44.01844238 -8.68685059 44.78688477 -8.9440918 45.57861328 C-10.74844497 50.87422248 -10.74844497 50.87422248 -13 52 C-16.62377462 38.73439647 -16.31615114 25.65935073 -16 12 C-14.89591797 11.45472656 -14.89591797 11.45472656 -13.76953125 10.8984375 C-7.9163554 7.88293079 -3.83223129 5.36512381 0 0 Z " fill="#65A13E" transform="translate(273,75)"/>
<path d="M0 0 C8.58 0.99 17.16 1.98 26 3 C18.82560336 11.37012941 11.72211994 18.27943857 3 25 C2.28199219 25.57234375 1.56398438 26.1446875 0.82421875 26.734375 C-1 28 -1 28 -3 28 C-2.57045552 24.49205342 -2.09865128 21.28434782 -0.9375 17.9375 C0.8433253 12.21247646 0.11240395 5.9012075 0 0 Z " fill="#98C852" transform="translate(383,319)"/>
<path d="M0 0 C-2.27055081 3.08354148 -4.54149021 6.16679656 -6.8125 9.25 C-7.45509766 10.12269531 -8.09769531 10.99539062 -8.75976562 11.89453125 C-9.38173828 12.73886719 -10.00371094 13.58320313 -10.64453125 14.453125 C-11.21534424 15.22817383 -11.78615723 16.00322266 -12.37426758 16.80175781 C-12.91075928 17.52717773 -13.44725098 18.25259766 -14 19 C-14.47244141 19.75023437 -14.94488281 20.50046875 -15.43164062 21.2734375 C-17 23 -17 23 -19.0847168 23.36230469 C-19.86500244 23.29946289 -20.64528809 23.23662109 -21.44921875 23.171875 C-22.29677734 23.11386719 -23.14433594 23.05585938 -24.01757812 22.99609375 C-25.33918945 22.87427734 -25.33918945 22.87427734 -26.6875 22.75 C-27.58017578 22.68425781 -28.47285156 22.61851562 -29.39257812 22.55078125 C-31.59718985 22.3857301 -33.79846902 22.20149283 -36 22 C-32.65952618 13.92513729 -28.39757596 10.7737926 -20.625 7.125 C-19.70460938 6.66609375 -18.78421875 6.2071875 -17.8359375 5.734375 C-15.24016226 4.45132038 -12.62689527 3.21780063 -10 2 C-9.30100586 1.66323242 -8.60201172 1.32646484 -7.88183594 0.97949219 C-3.35831777 -1.11943926 -3.35831777 -1.11943926 0 0 Z " fill="#98C951" transform="translate(296,208)"/>
<path d="M0 0 C6.50340902 5.69385603 11.91495677 11.84202557 17.19921875 18.66015625 C18.25369331 19.95436086 19.30978926 21.24724551 20.3671875 22.5390625 C38.19921875 44.66203109 38.19921875 44.66203109 38.19921875 54.66015625 C37.53921875 54.66015625 36.87921875 54.66015625 36.19921875 54.66015625 C35.73773438 53.59539062 35.27625 52.530625 34.80078125 51.43359375 C25.55666063 30.64095111 10.42432634 9.88894499 -8.36328125 -3.33984375 C-8.96333984 -3.76281738 -9.56339844 -4.18579102 -10.18164062 -4.62158203 C-27.64641399 -16.63658122 -45.99619409 -20.46134776 -66.80078125 -21.33984375 C-67.4855957 -21.36997559 -68.17041016 -21.40010742 -68.87597656 -21.43115234 C-78.26558209 -21.79193748 -86.80490188 -20.88219631 -95.98046875 -19.07421875 C-100.25515444 -18.25250003 -104.46927073 -17.73361743 -108.80078125 -17.33984375 C-107.80078125 -19.33984375 -107.80078125 -19.33984375 -105.7890625 -20.12109375 C-68.96948219 -30.01131678 -29.61706314 -24.74284633 0 0 Z " fill="#622E1D" transform="translate(340.80078125,269.33984375)"/>
<path d="M0 0 C4.88296131 2.71275628 6.22258729 4.94014797 7.8125 10.25 C8.02519531 11.12140625 8.23789063 11.9928125 8.45703125 12.890625 C8.80206035 14.97156557 8.80206035 14.97156557 10 16 C13.70880369 16.13638093 17.41169003 16.24795379 21.12304688 16.25390625 C27.1166645 16.44013476 29.82388238 17.6594683 34 22 C34.495 22.99 34.495 22.99 35 24 C39.01601175 23.43446537 41.58168701 22.1800101 44.9375 19.9375 C51.41153539 15.95716713 51.41153539 15.95716713 56 17 C59.1875 18.8125 59.1875 18.8125 62 21 C62.61875 21.45375 63.2375 21.9075 63.875 22.375 C65.58761248 24.84877359 65.1945254 27.08211895 65 30 C64.34 30 63.68 30 63 30 C62.690625 28.3603125 62.690625 28.3603125 62.375 26.6875 C61.33112697 22.86843992 61.33112697 22.86843992 58.3125 21 C54.18871835 19.75508478 52.1560924 19.80248185 48 21 C46.45345273 22.00309272 44.9335988 23.0481101 43.4375 24.125 C40.42934773 26.25171753 39.39243311 26.97819816 35.625 27.1875 C32.33225596 25.69792531 31.68012392 24.13114003 30 21 C25.87408143 17.95878238 20.76929062 18.99149958 15.93164062 19.34179688 C11.99216232 19.48578905 10.24274676 19.18310778 7.05859375 16.78125 C5.02123089 14.02868386 4.36208276 12.64479289 4 9.3125 C3.4678718 5.75357229 3.4678718 5.75357229 0.8125 3.4375 C-0.115625 3.293125 -1.04375 3.14875 -2 3 C-3.03125 2.814375 -4.0625 2.62875 -5.125 2.4375 C-11.04960319 3.29752304 -15.14654319 6.65698477 -20 10 C-25.15100791 13.45774264 -28.92069015 13.69123348 -35 13 C-36.70084765 12.5474809 -38.38970186 12.04717696 -40.0625 11.5 C-44.7632109 9.96507399 -49.07952361 8.9933251 -54 10 C-57.53534785 11.83959213 -59.61565457 14.2138389 -61.375 17.8125 C-61.58125 18.534375 -61.7875 19.25625 -62 20 C-62.66 20 -63.32 20 -64 20 C-63.49430263 15.57514805 -62.10058108 13.18438057 -59 10 C-54.11525497 6.70563707 -49.71438725 6.16247149 -44 7 C-41.96474664 7.64355837 -39.94385777 8.33383539 -37.9375 9.0625 C-32.52151052 10.96837984 -29.53024763 11.72253615 -24 10 C-21.5724522 8.36359128 -19.33710486 6.59350694 -17.0859375 4.72265625 C-11.807185 0.36323705 -6.73713903 -1.23152004 0 0 Z " fill="#8E4B2C" transform="translate(160,284)"/>
<path d="M0 0 C0.33 0 0.66 0 1 0 C0.8281043 4.38334042 0.39850089 6.51975534 -2.4375 9.9375 C-5.92292957 12.43900447 -9.18343745 12.75875613 -13.40234375 12.57421875 C-17.26580573 11.72019031 -19.93109136 9.75234047 -22.9921875 7.3125 C-25.15822751 5.63522559 -25.15822751 5.63522559 -29 6 C-30.73473712 7.94125344 -32.4045651 9.94272868 -34 12 C-36.23799705 13.11899852 -37.57852274 13.16477307 -40.0625 13.24609375 C-40.85914063 13.27896484 -41.65578125 13.31183594 -42.4765625 13.34570312 C-44.15871678 13.40689604 -45.84101747 13.46418863 -47.5234375 13.51757812 C-48.32007813 13.55173828 -49.11671875 13.58589844 -49.9375 13.62109375 C-51.03384766 13.65867798 -51.03384766 13.65867798 -52.15234375 13.69702148 C-54.24453512 13.85562557 -54.24453512 13.85562557 -56 16 C-56.54121725 18.22500427 -56.88669395 20.44939345 -57.2421875 22.7109375 C-58.25052362 25.75673629 -59.44240371 27.0677856 -62 29 C-67.24809623 30.08193684 -72.6988149 30.06951631 -77.60546875 27.7890625 C-79.82603895 26.2832025 -81.9111873 24.68254068 -84 23 C-88.40695427 20.0014538 -91.5908025 18.60889381 -97 19 C-99.12469967 19.62114808 -101.22984973 20.31233904 -103.3125 21.0625 C-110.18712576 23.27304101 -115.14477401 23.62776208 -121.8125 20.8125 C-124.58298594 18.51695451 -126.24062443 16.12777879 -128 13 C-128 12.01 -128 11.02 -128 10 C-127.34 10 -126.68 10 -126 10 C-125.62875 10.9075 -125.2575 11.815 -124.875 12.75 C-122.6498456 16.60693429 -120.98893723 18.04316287 -117 20 C-111.54131559 20.76613115 -107.71143638 19.66661242 -102.5 17.9375 C-92.88434639 14.87596431 -92.88434639 14.87596431 -88 17 C-85.04733606 18.89814111 -82.27363818 20.91889338 -79.515625 23.08984375 C-76.00588182 25.75485061 -73.44988048 27.28476469 -69 27.25 C-68.34 27.25515625 -67.68 27.2603125 -67 27.265625 C-64.51435391 26.93550013 -63.04858132 26.47133277 -61 25 C-60.01064665 22.46764429 -60.01064665 22.46764429 -59.5 19.5625 C-58.86832844 16.44154381 -58.48078891 14.53270508 -56.3359375 12.15625 C-53.13430933 10.5714976 -50.67660538 10.78092385 -47.125 10.9375 C-42.24381816 11.14307893 -38.50656166 10.99929831 -34 9 C-31.61384998 6.00628895 -31.61384998 6.00628895 -30 3 C-25.10469265 3.20831095 -22.436284 4.18202 -18.4375 7.0625 C-15.61235092 9.05785147 -14.21369071 9.96301507 -10.75 10.5625 C-7.43903969 9.88525812 -5.60506958 9.18262586 -3 7 C-1.72485213 4.70473383 -0.89194645 2.48806114 0 0 Z " fill="#8E4B2C" transform="translate(224,343)"/>
<path d="M0 0 C29.37618348 -1.33528107 59.24486252 5.86274033 84 22 C85.10988281 22.70769531 86.21976562 23.41539062 87.36328125 24.14453125 C100.4626337 32.85128647 113.38498559 43.47134486 123 56 C123 56.66 123 57.32 123 58 C119.71268312 56.90422771 119.11996244 56.22195399 117 53.625 C103.88432279 38.29605226 88.86200456 27.25054976 71 18 C69.91074219 17.43410156 68.82148438 16.86820312 67.69921875 16.28515625 C49.98762188 7.61684047 29.65479751 3.34634422 10.0625 2.4375 C8.75055664 2.37272461 8.75055664 2.37272461 7.41210938 2.30664062 C5.27488005 2.20153099 3.13745762 2.10036015 1 2 C0.67 1.34 0.34 0.68 0 0 Z " fill="#622E1D" transform="translate(251,267)"/>
<path d="M0 0 C0.33 0 0.66 0 1 0 C1.0402832 1.14936035 1.08056641 2.2987207 1.12207031 3.48291016 C1.68247108 17.53054617 3.10498369 31.4174747 4.75 45.375 C4.88117218 46.50888153 5.01234436 47.64276306 5.14749146 48.81100464 C6.89149102 63.85520423 8.85120399 78.81667207 11.61425781 93.71044922 C11.81245117 94.78697754 12.01064453 95.86350586 12.21484375 96.97265625 C12.47962524 98.33789429 12.47962524 98.33789429 12.74975586 99.73071289 C13 102 13 102 12 105 C9.57247213 102.57247213 9.54655547 101.421152 9.03515625 98.07421875 C8.876521 97.06133789 8.71788574 96.04845703 8.55444336 95.00488281 C8.39210205 93.91014648 8.22976074 92.81541016 8.0625 91.6875 C7.88920166 90.55538086 7.71590332 89.42326172 7.53735352 88.25683594 C7.18394855 85.93469324 6.8345909 83.61193102 6.48925781 81.28857422 C6.06266288 78.42119208 5.62363548 75.55613755 5.1796875 72.69140625 C3.41314345 61.05870797 2.1467519 49.39216006 1.00170898 37.68261719 C0.88512939 36.49829102 0.7685498 35.31396484 0.6484375 34.09375 C0.54708496 33.03865234 0.44573242 31.98355469 0.34130859 30.89648438 C0.04475252 28.04304033 0.04475252 28.04304033 -0.51635742 25.43237305 C-1.3770996 21.10346124 -1.46376484 16.71262472 -1.6875 12.3125 C-1.74744141 11.35021484 -1.80738281 10.38792969 -1.86914062 9.39648438 C-1.91619141 8.47802734 -1.96324219 7.55957031 -2.01171875 6.61328125 C-2.08072388 5.35704956 -2.08072388 5.35704956 -2.15112305 4.07543945 C-2 2 -2 2 0 0 Z " fill="#92C54F" transform="translate(182,129)"/>
<path d="M0 0 C0 0.66 0 1.32 0 2 C-2.02843817 3.63613154 -4.05118926 5.14084676 -6.1875 6.625 C-7.13665283 7.2905188 -7.13665283 7.2905188 -8.10498047 7.96948242 C-22.28341788 17.81885499 -36.0278622 24.8427338 -52.96728516 28.54589844 C-54.8546982 28.96754007 -56.73083835 29.43880409 -58.60546875 29.9140625 C-68.93623305 32.20502992 -79.21459205 32.26377142 -89.75 32.25 C-90.51318542 32.24931519 -91.27637085 32.24863037 -92.06268311 32.2479248 C-105.94268263 32.20688731 -105.94268263 32.20688731 -111 31 C-111 30.34 -111 29.68 -111 29 C-110.2471875 29.0721875 -109.494375 29.144375 -108.71875 29.21875 C-90.7433164 30.78941895 -74.6999173 29.30917769 -57 26 C-56.11328613 25.8345166 -55.22657227 25.6690332 -54.31298828 25.49853516 C-35.76248312 21.93936333 -21.71827003 14.37619748 -6.59423828 3.20043945 C-2.21403629 0 -2.21403629 0 0 0 Z " fill="#622E1D" transform="translate(376,345)"/>
<path d="M0 0 C0.99 0.495 0.99 0.495 2 1 C-23.90413356 18.56212445 -55.89091 30.16684149 -87.3125 30.1875 C-88.7655957 30.20586914 -88.7655957 30.20586914 -90.24804688 30.22460938 C-96.90065999 30.23792348 -103.58665735 29.918841 -110 28 C-110.33 27.34 -110.66 26.68 -111 26 C-110.27804443 26.06783691 -109.55608887 26.13567383 -108.81225586 26.20556641 C-89.14325158 27.96186878 -70.94433278 27.86283763 -52 22 C-50.82824219 21.64583008 -49.65648437 21.29166016 -48.44921875 20.92675781 C-32.15088846 15.94486268 -16.59817573 10.50090642 -2.19140625 1.18359375 C-1.46824219 0.79300781 -0.74507813 0.40242188 0 0 Z " fill="#632E1D" transform="translate(363,366)"/>
<path d="M0 0 C0.33 0 0.66 0 1 0 C1.03963867 0.78197754 1.07927734 1.56395508 1.12011719 2.36962891 C2.42011441 27.05880274 4.30923267 51.7497166 10.265625 75.82421875 C11 79 11 79 11 82 C10.34 82 9.68 82 9 82 C8.37253965 79.68814368 7.74800141 77.37555841 7.125 75.0625 C6.86396484 74.1024707 6.86396484 74.1024707 6.59765625 73.12304688 C6.05027939 71.08558856 5.52112615 69.04432597 5 67 C4.74923706 66.03271973 4.74923706 66.03271973 4.4934082 65.04589844 C2.67184608 57.50926341 1.85244179 49.81230288 0.9375 42.125 C0.84940063 41.39677032 0.76130127 40.66854065 0.67053223 39.91824341 C-0.68947661 28.62547927 -1.70334453 17.3767374 -2 6 C-2.99 6.66 -3.98 7.32 -5 8 C-3.6299034 5.0490227 -2.06764583 2.51713405 0 0 Z " fill="#90C34F" transform="translate(164,149)"/>
<path d="M0 0 C7.83270778 -0.22549872 15.27164222 0.36091133 23 1.625 C24.08724365 1.80248779 25.1744873 1.97997559 26.29467773 2.1628418 C50.3197041 6.31895095 76.96722133 16.35082643 96 32 C96.33 32.66 96.66 33.32 97 34 C92.36712189 32.36592284 88.42025662 29.91715254 84.25 27.375 C58.29583718 11.96567299 30.17357219 3.40680642 0 2 C0 1.34 0 0.68 0 0 Z " fill="#612E1D" transform="translate(270,290)"/>
<path d="M0 0 C-1.57236218 4.04457017 -4.45210639 6.50509099 -7.625 9.3125 C-8.16697021 9.80177979 -8.70894043 10.29105957 -9.26733398 10.79516602 C-12.15669033 13.3951144 -15.09221197 15.93035459 -18.0625 18.4375 C-33.12775795 31.64666867 -45.02249844 48.74078146 -55 66 C-55.66 65.67 -56.32 65.34 -57 65 C-55.40851174 60.31544982 -52.86905657 56.58317517 -50.0625 52.5625 C-49.57305908 51.85875244 -49.08361816 51.15500488 -48.5793457 50.42993164 C-13.18146742 0 -13.18146742 0 0 0 Z " fill="#68A33E" transform="translate(407,199)"/>
<path d="M0 0 C0 0.66 0 1.32 0 2 C-19.27568891 4.96670447 -38.40432655 5.28674638 -57.875 5.25 C-59.10920685 5.24895264 -60.3434137 5.24790527 -61.61502075 5.24682617 C-65.178337 5.24044025 -68.74143161 5.22445191 -72.3046875 5.203125 C-73.37975052 5.19875427 -74.45481354 5.19438354 -75.56245422 5.18988037 C-80.80934303 5.14049493 -85.82959193 4.90990429 -91 4 C-91 3.34 -91 2.68 -91 2 C-89.80754669 2.00666183 -89.80754669 2.00666183 -88.59100342 2.01345825 C-81.00371039 2.05396511 -73.41647168 2.08419877 -65.82909775 2.10362434 C-61.93077638 2.11394772 -58.03254623 2.12789004 -54.13427734 2.15087891 C-30.7936179 2.31793711 -30.7936179 2.31793711 -7.54394531 0.43310547 C-4 0 -4 0 0 0 Z " fill="#602D1D" transform="translate(370,331)"/>
<path d="M0 0 C0 0.66 0 1.32 0 2 C-2.97827568 3.10657994 -5.95778385 4.20980534 -8.9375 5.3125 C-9.76830078 5.62123047 -10.59910156 5.92996094 -11.45507812 6.24804688 C-13.966237 7.17629627 -16.48128233 8.09246795 -19 9 C-19.73758545 9.26578857 -20.4751709 9.53157715 -21.23510742 9.80541992 C-45.94064156 18.38938198 -71.23139804 17.5966229 -97 17 C-97 16.34 -97 15.68 -97 15 C-96.08001221 15.01571045 -95.16002441 15.0314209 -94.2121582 15.04760742 C-67.96825168 15.44955496 -67.96825168 15.44955496 -42 12 C-41.33049316 11.86609863 -40.66098633 11.73219727 -39.97119141 11.59423828 C-29.69164734 9.47249101 -19.80743268 6.04280837 -9.89526367 2.6418457 C-8.90115479 2.30113037 -7.9070459 1.96041504 -6.8828125 1.609375 C-5.54307373 1.1448291 -5.54307373 1.1448291 -4.17626953 0.67089844 C-2 0 -2 0 0 0 Z " fill="#612E1D" transform="translate(372,338)"/>
<path d="M0 0 C12.33556948 0.36250071 24.08174231 2.80848601 36.125 5.3125 C38.05972754 5.70850541 39.9946229 6.1036918 41.9296875 6.49804688 C44.80145248 7.08348966 47.67266152 7.67107842 50.54229736 8.26687622 C55.26936393 9.24765867 59.99876979 10.19637182 64.74511719 11.07958984 C66.11759109 11.33931831 66.11759109 11.33931831 67.51779175 11.60429382 C69.24394256 11.92928909 70.9717007 12.24590311 72.70120239 12.55256653 C76.83285311 13.33786121 79.85291907 13.99876458 83 17 C76.6322739 16.45105809 70.56259337 15.31371608 64.32421875 13.94140625 C43.0067846 9.26860855 21.5178763 5.60216898 0 2 C0 1.34 0 0.68 0 0 Z " fill="#642F1E" transform="translate(277,309)"/>
<path d="M0 0 C2.42788318 3.64182478 2.92100249 7.08492309 3.625 11.3125 C3.7590625 12.05951172 3.893125 12.80652344 4.03125 13.57617188 C4.75254051 17.76775295 5.14937061 21.72935844 5 26 C-0.445 27.485 -0.445 27.485 -6 29 C-5.18867488 24.91643 -4.37599031 20.83313871 -3.5625 16.75 C-3.33240234 15.59113281 -3.10230469 14.43226563 -2.86523438 13.23828125 C-2.53168945 11.56572266 -2.53168945 11.56572266 -2.19140625 9.859375 C-1.88505249 8.31975098 -1.88505249 8.31975098 -1.57250977 6.74902344 C-1.10025013 4.48137161 -0.58369814 2.24102581 0 0 Z " fill="#69A343" transform="translate(131,209)"/>
<path d="M0 0 C0.99 0.33 1.98 0.66 3 1 C2.27296875 1.77601563 1.5459375 2.55203125 0.796875 3.3515625 C-15.32940964 20.64288451 -30.17836794 38.81840433 -44 58 C-44.66 57.34 -45.32 56.68 -46 56 C-33.65144961 39.41178064 -20.815716 23.44990708 -6.9140625 8.1328125 C-4.53320932 5.47986181 -2.25306347 2.76181974 0 0 Z " fill="#69A43F" transform="translate(382,195)"/>
<path d="M0 0 C6.50868456 0.46490604 12.6118138 1.80155087 18.88671875 3.54003906 C28.28934986 6.05524289 37.94539869 6.20377844 47.625 6.5625 C48.72457031 6.60568359 49.82414062 6.64886719 50.95703125 6.69335938 C53.63792882 6.79826406 56.31890001 6.90042726 59 7 C58.67 7.66 58.34 8.32 58 9 C41.59689427 14.46770191 19.02580339 7.12975349 3 3 C2.67 3.66 2.34 4.32 2 5 C1.34 3.35 0.68 1.7 0 0 Z " fill="#6FA841" transform="translate(370,291)"/>
<path d="M0 0 C0.99 0.33 1.98 0.66 3 1 C2.26910156 1.73476562 2.26910156 1.73476562 1.5234375 2.484375 C-6.01938981 10.43862925 -12.01499821 19.37593006 -18.20263672 28.39306641 C-21.05918074 32.53625807 -23.96667444 36.64307051 -26.875 40.75 C-27.8724659 42.16140882 -28.86986896 43.57286205 -29.8671875 44.984375 C-30.57101562 45.97953125 -31.27484375 46.9746875 -32 48 C-33.32 47.34 -34.64 46.68 -36 46 C-35.01 46 -34.02 46 -33 46 C-32.79632813 45.35289062 -32.59265625 44.70578125 -32.3828125 44.0390625 C-30.42646082 39.73950993 -27.67601737 36.16254666 -24.875 32.375 C-24.28678467 31.57175293 -23.69856934 30.76850586 -23.0925293 29.94091797 C-21.92307035 28.34402379 -20.75181014 26.74844692 -19.57861328 25.15429688 C-17.63076232 22.49610991 -15.72384074 19.80951142 -13.8125 17.125 C-9.49470263 11.17993852 -4.76143408 5.59078223 0 0 Z " fill="#69A43F" transform="translate(353,196)"/>
<path d="M0 0 C0.33 0 0.66 0 1 0 C1.04318359 1.01690918 1.08636719 2.03381836 1.13085938 3.08154297 C1.64547148 13.87758183 2.8872127 24.44343862 4.5 35.125 C4.72853842 36.67437992 4.95640483 38.22385912 5.18359375 39.7734375 C5.59939888 42.60365967 6.01900978 45.4332539 6.44335938 48.26220703 C6.97612783 51.83970047 7.49214254 55.41890918 8 59 C7.01 59 6.02 59 5 59 C4.13534173 53.22143053 3.28126719 47.44142643 2.43652344 41.65991211 C2.14833868 39.69758022 1.85737859 37.73565367 1.56347656 35.77416992 C-1.56786889 14.85060478 -1.56786889 14.85060478 -1 6 C-1.66 5.67 -2.32 5.34 -3 5 C-2.03114628 3.31503702 -1.03013277 1.64821244 0 0 Z " fill="#92C450" transform="translate(147,173)"/>
<path d="M0 0 C1.32 0.33 2.64 0.66 4 1 C3.58242432 1.46148437 3.16484863 1.92296875 2.73461914 2.3984375 C-2.00747876 7.71810282 -6.32447842 13.27411619 -10.5625 19 C-11.51286133 20.27617187 -11.51286133 20.27617187 -12.48242188 21.578125 C-13.7266652 23.24907587 -14.96970797 24.92092152 -16.21142578 26.59375 C-18.79615831 30.07110788 -21.39686369 33.53640771 -24 37 C-24.99 36.67 -25.98 36.34 -27 36 C-26.34 36 -25.68 36 -25 36 C-24.7306665 35.26209229 -24.46133301 34.52418457 -24.18383789 33.76391602 C-23.0417429 31.0974575 -21.78996587 29.09166582 -20.05859375 26.77734375 C-19.18871826 25.60619019 -19.18871826 25.60619019 -18.30126953 24.41137695 C-17.68622559 23.59499756 -17.07118164 22.77861816 -16.4375 21.9375 C-15.49946533 20.67909302 -15.49946533 20.67909302 -14.54248047 19.39526367 C-12.70022377 16.92620366 -10.85081789 14.46264584 -9 12 C-8.0243413 10.69561031 -7.04903829 9.39095444 -6.07421875 8.0859375 C-4.05556925 5.38601799 -2.03040682 2.69109475 0 0 Z " fill="#69A33F" transform="translate(325,199)"/>
<path d="M0 0 C0.66 0 1.32 0 2 0 C2.88625806 7.64397581 3.13437543 15.24838315 3.1875 22.9375 C3.20039063 23.84910889 3.21328125 24.76071777 3.2265625 25.69995117 C3.23327776 30.23821054 3.17309113 33.88572865 1 38 C0.67 38 0.34 38 0 38 C0 25.46 0 12.92 0 0 Z " fill="#F0F6EC" transform="translate(306,157)"/>
<path d="M0 0 C1.80736431 0.18899122 3.61397037 0.39570629 5.41015625 0.67138672 C10.905136 1.36861925 16.46830961 1.38434102 22 1.5625 C23.87751953 1.62727539 23.87751953 1.62727539 25.79296875 1.69335938 C28.86188523 1.79878017 31.93087389 1.90090342 35 2 C35 2.66 35 3.32 35 4 C23.23375739 7.28283761 9.53575172 5.16151108 -2 2 C-1.34 1.34 -0.68 0.68 0 0 Z " fill="#6FA942" transform="translate(419,249)"/>
<path d="M0 0 C17.49 0.33 34.98 0.66 53 1 C53 1.33 53 1.66 53 2 C46.57725687 2.16893001 40.15433163 2.32868469 33.73120117 2.48217773 C31.54788085 2.53542156 29.36460998 2.59073606 27.18139648 2.64819336 C24.03640399 2.73059804 20.89130669 2.80546088 17.74609375 2.87890625 C16.7760289 2.90594131 15.80596405 2.93297638 14.8065033 2.96083069 C9.732139 3.07162273 4.99882593 2.89707027 0 2 C0 1.34 0 0.68 0 0 Z " fill="#6A331F" transform="translate(279,333)"/>
<path d="M0 0 C8.58 0.99 17.16 1.98 26 3 C25.67 3.66 25.34 4.32 25 5 C16.7574683 5.26305952 9.08808989 4.60614551 1 3 C0.67 2.01 0.34 1.02 0 0 Z " fill="#6CA740" transform="translate(383,319)"/>
<path d="M0 0 C0 0.66 0 1.32 0 2 C-8.08098427 5.0303691 -15.98672512 5.14293065 -24.5 5.0625 C-25.4178125 5.05798828 -26.335625 5.05347656 -27.28125 5.04882812 C-29.52090391 5.03716326 -31.76041545 5.02079614 -34 5 C-34 4.67 -34 4.34 -34 4 C-33.41621582 3.9498877 -32.83243164 3.89977539 -32.23095703 3.84814453 C-29.52843666 3.61284118 -26.82675227 3.36895876 -24.125 3.125 C-22.74828125 3.00705078 -22.74828125 3.00705078 -21.34375 2.88671875 C-15.83019706 2.38195686 -10.49660078 1.5945536 -5.08935547 0.39794922 C-3 0 -3 0 0 0 Z " fill="#67A33E" transform="translate(444,271)"/>
<path d="M0 0 C2.42788318 3.64182478 2.92100249 7.08492309 3.625 11.3125 C3.7590625 12.05951172 3.893125 12.80652344 4.03125 13.57617188 C4.75254051 17.76775295 5.14937061 21.72935844 5 26 C4.34 26 3.68 26 3 26 C2.79503906 24.83082031 2.59007812 23.66164062 2.37890625 22.45703125 C2.10680145 20.90884878 1.83466433 19.360672 1.5625 17.8125 C1.36043945 16.65911133 1.36043945 16.65911133 1.15429688 15.48242188 C1.02216797 14.73154297 0.89003906 13.98066406 0.75390625 13.20703125 C0.6257251 12.47782471 0.49754395 11.74861816 0.36547852 10.99731445 C0.06532873 9.35701695 -0.27440631 7.72401067 -0.625 6.09375 C-1.04465905 3.75065364 -0.7467378 2.2402134 0 0 Z " fill="#91C44E" transform="translate(131,209)"/>
<path d="M0 0 C1.43829059 4.31487178 0.23600305 7.64515321 -0.75 12 C-0.92015625 12.81984375 -1.0903125 13.6396875 -1.265625 14.484375 C-1.4409375 15.27328125 -1.61625 16.0621875 -1.796875 16.875 C-1.95510742 17.59429687 -2.11333984 18.31359375 -2.27636719 19.0546875 C-3.11397166 21.30638535 -4.20511938 22.43516919 -6 24 C-7 22 -7 22 -6.546875 20.2578125 C-6.28390625 19.55398437 -6.0209375 18.85015625 -5.75 18.125 C-4.03334549 13.29001895 -2.8207249 8.39792539 -1.6484375 3.40625 C-1 1 -1 1 0 0 Z " fill="#F5F8F2" transform="translate(129,215)"/>
<path d="M0 0 C5.31637797 -0.50632171 7.82517803 0.75291624 12 4 C12.928125 4.680625 12.928125 4.680625 13.875 5.375 C15.58761248 7.84877359 15.1945254 10.08211895 15 13 C14.34 13 13.68 13 13 13 C12.79375 11.906875 12.5875 10.81375 12.375 9.6875 C11.34892711 5.83597444 11.34892711 5.83597444 8.1875 4.125 C5.43682263 3.15417269 2.8811931 2.42370487 0 2 C0 1.34 0 0.68 0 0 Z " fill="#924F2F" transform="translate(210,301)"/>
<path d="M0 0 C0.33 0 0.66 0 1 0 C1 1.98 1 3.96 1 6 C4.96 5.34 8.92 4.68 13 4 C13 4.66 13 5.32 13 6 C6.07 7.485 6.07 7.485 -1 9 C-1.09765625 2.84765625 -1.09765625 2.84765625 -1 1 C-0.67 0.67 -0.34 0.34 0 0 Z " fill="#FEFEFD" transform="translate(307,194)"/>
<path d="M0 0 C0 1.65 0 3.3 0 5 C-0.556875 5.2475 -1.11375 5.495 -1.6875 5.75 C-4.39971127 7.21606015 -6.63587365 9.02989471 -9 11 C-8.42703238 7.40303663 -7.10347171 5.74677205 -4.5 3.25 C-3.8709375 2.63640625 -3.241875 2.0228125 -2.59375 1.390625 C-1 0 -1 0 0 0 Z " fill="#98C759" transform="translate(306,157)"/>
<path d="M0 0 C3.63 0.33 7.26 0.66 11 1 C11 1.66 11 2.32 11 3 C3.57142857 3.28571429 3.57142857 3.28571429 0 1 C0 0.67 0 0.34 0 0 Z " fill="#67A33E" transform="translate(390,296)"/>
<path d="M0 0 C1 3 1 3 0.22265625 5.04296875 C-0.16019531 5.75066406 -0.54304687 6.45835937 -0.9375 7.1875 C-1.31777344 7.90292969 -1.69804687 8.61835938 -2.08984375 9.35546875 C-2.54037109 10.16951172 -2.54037109 10.16951172 -3 11 C-3.66 10.34 -4.32 9.68 -5 9 C-4.3566152 7.686298 -3.71021785 6.37407102 -3.0625 5.0625 C-2.70285156 4.33160156 -2.34320313 3.60070312 -1.97265625 2.84765625 C-1 1 -1 1 0 0 Z " fill="#F0F6EC" transform="translate(143,178)"/>
<path d="M0 0 C2.29013653 3.4352048 2.17842973 4.985331 2 9 C1.34 9 0.68 9 0 9 C-0.84454356 5.62182575 -1.10844919 3.32534757 0 0 Z " fill="#9BC960" transform="translate(131,209)"/>
<path d="M0 0 C0 3 0 3 -2 6 C-4.625 6.1875 -4.625 6.1875 -7 6 C-6.21625 5.38125 -5.4325 4.7625 -4.625 4.125 C-2.03162353 2.10141339 -2.03162353 2.10141339 0 0 Z " fill="#94C54F" transform="translate(259,225)"/>
</svg>
